<?xml version="1.0" encoding="utf-8" standalone="no"?>
<!DOCTYPE svg PUBLIC "-//W3C//DTD SVG 1.1//EN"
  "http://www.w3.org/Graphics/SVG/1.1/DTD/svg11.dtd">
<svg xmlns:xlink="http://www.w3.org/1999/xlink" width="1080pt" height="720pt" viewBox="0 0 1080 720" xmlns="http://www.w3.org/2000/svg" version="1.1">
 <metadata>
  <rdf:RDF xmlns:dc="http://purl.org/dc/elements/1.1/" xmlns:cc="http://creativecommons.org/ns#" xmlns:rdf="http://www.w3.org/1999/02/22-rdf-syntax-ns#">
   <cc:Work>
    <dc:type rdf:resource="http://purl.org/dc/dcmitype/StillImage"/>
    <dc:date>2024-12-30T22:25:13.274873</dc:date>
    <dc:format>image/svg+xml</dc:format>
    <dc:creator>
     <cc:Agent>
      <dc:title>Matplotlib v3.10.0, https://matplotlib.org/</dc:title>
     </cc:Agent>
    </dc:creator>
   </cc:Work>
  </rdf:RDF>
 </metadata>
 <defs>
  <style type="text/css">*{stroke-linejoin: round; stroke-linecap: butt}</style>
 </defs>
 <g id="figure_1">
  <g id="patch_1">
   <path d="M 0 720 
L 1080 720 
L 1080 0 
L 0 0 
z
" style="fill: #ffffff"/>
  </g>
  <g id="axes_1">
   <g id="patch_2">
    <path d="M 135 640.8 
L 972 640.8 
L 972 86.4 
L 135 86.4 
z
" style="fill: #ffffff"/>
   </g>
   <g id="matplotlib.axis_1">
    <g id="xtick_1">
     <g id="line2d_1">
      <path d="M 171.553475 640.8 
L 171.553475 86.4 
" clip-path="url(#pa2dfdf422f)" style="fill: none; stroke: #b0b0b0; stroke-width: 0.8; stroke-linecap: square"/>
     </g>
     <g id="line2d_2">
      <defs>
       <path id="mfe548b8d4a" d="M 0 0 
L 0 3.5 
" style="stroke: #000000; stroke-width: 0.8"/>
      </defs>
      <g>
       <use xlink:href="#mfe548b8d4a" x="171.553475" y="640.8" style="stroke: #000000; stroke-width: 0.8"/>
      </g>
     </g>
     <g id="text_1">
      <!-- 0.00 -->
      <g transform="translate(160.420662 655.398438) scale(0.1 -0.1)">
       <defs>
        <path id="DejaVuSans-30" d="M 2034 4250 
Q 1547 4250 1301 3770 
Q 1056 3291 1056 2328 
Q 1056 1369 1301 889 
Q 1547 409 2034 409 
Q 2525 409 2770 889 
Q 3016 1369 3016 2328 
Q 3016 3291 2770 3770 
Q 2525 4250 2034 4250 
z
M 2034 4750 
Q 2819 4750 3233 4129 
Q 3647 3509 3647 2328 
Q 3647 1150 3233 529 
Q 2819 -91 2034 -91 
Q 1250 -91 836 529 
Q 422 1150 422 2328 
Q 422 3509 836 4129 
Q 1250 4750 2034 4750 
z
" transform="scale(0.015625)"/>
        <path id="DejaVuSans-2e" d="M 684 794 
L 1344 794 
L 1344 0 
L 684 0 
L 684 794 
z
" transform="scale(0.015625)"/>
       </defs>
       <use xlink:href="#DejaVuSans-30"/>
       <use xlink:href="#DejaVuSans-2e" transform="translate(63.623047 0)"/>
       <use xlink:href="#DejaVuSans-30" transform="translate(95.410156 0)"/>
       <use xlink:href="#DejaVuSans-30" transform="translate(159.033203 0)"/>
      </g>
     </g>
    </g>
    <g id="xtick_2">
     <g id="line2d_3">
      <path d="M 325.707182 640.8 
L 325.707182 86.4 
" clip-path="url(#pa2dfdf422f)" style="fill: none; stroke: #b0b0b0; stroke-width: 0.8; stroke-linecap: square"/>
     </g>
     <g id="line2d_4">
      <g>
       <use xlink:href="#mfe548b8d4a" x="325.707182" y="640.8" style="stroke: #000000; stroke-width: 0.8"/>
      </g>
     </g>
     <g id="text_2">
      <!-- 0.01 -->
      <g transform="translate(314.574369 655.398438) scale(0.1 -0.1)">
       <defs>
        <path id="DejaVuSans-31" d="M 794 531 
L 1825 531 
L 1825 4091 
L 703 3866 
L 703 4441 
L 1819 4666 
L 2450 4666 
L 2450 531 
L 3481 531 
L 3481 0 
L 794 0 
L 794 531 
z
" transform="scale(0.015625)"/>
       </defs>
       <use xlink:href="#DejaVuSans-30"/>
       <use xlink:href="#DejaVuSans-2e" transform="translate(63.623047 0)"/>
       <use xlink:href="#DejaVuSans-30" transform="translate(95.410156 0)"/>
       <use xlink:href="#DejaVuSans-31" transform="translate(159.033203 0)"/>
      </g>
     </g>
    </g>
    <g id="xtick_3">
     <g id="line2d_5">
      <path d="M 479.860888 640.8 
L 479.860888 86.4 
" clip-path="url(#pa2dfdf422f)" style="fill: none; stroke: #b0b0b0; stroke-width: 0.8; stroke-linecap: square"/>
     </g>
     <g id="line2d_6">
      <g>
       <use xlink:href="#mfe548b8d4a" x="479.860888" y="640.8" style="stroke: #000000; stroke-width: 0.8"/>
      </g>
     </g>
     <g id="text_3">
      <!-- 0.02 -->
      <g transform="translate(468.728076 655.398438) scale(0.1 -0.1)">
       <defs>
        <path id="DejaVuSans-32" d="M 1228 531 
L 3431 531 
L 3431 0 
L 469 0 
L 469 531 
Q 828 903 1448 1529 
Q 2069 2156 2228 2338 
Q 2531 2678 2651 2914 
Q 2772 3150 2772 3378 
Q 2772 3750 2511 3984 
Q 2250 4219 1831 4219 
Q 1534 4219 1204 4116 
Q 875 4013 500 3803 
L 500 4441 
Q 881 4594 1212 4672 
Q 1544 4750 1819 4750 
Q 2544 4750 2975 4387 
Q 3406 4025 3406 3419 
Q 3406 3131 3298 2873 
Q 3191 2616 2906 2266 
Q 2828 2175 2409 1742 
Q 1991 1309 1228 531 
z
" transform="scale(0.015625)"/>
       </defs>
       <use xlink:href="#DejaVuSans-30"/>
       <use xlink:href="#DejaVuSans-2e" transform="translate(63.623047 0)"/>
       <use xlink:href="#DejaVuSans-30" transform="translate(95.410156 0)"/>
       <use xlink:href="#DejaVuSans-32" transform="translate(159.033203 0)"/>
      </g>
     </g>
    </g>
    <g id="xtick_4">
     <g id="line2d_7">
      <path d="M 634.014595 640.8 
L 634.014595 86.4 
" clip-path="url(#pa2dfdf422f)" style="fill: none; stroke: #b0b0b0; stroke-width: 0.8; stroke-linecap: square"/>
     </g>
     <g id="line2d_8">
      <g>
       <use xlink:href="#mfe548b8d4a" x="634.014595" y="640.8" style="stroke: #000000; stroke-width: 0.8"/>
      </g>
     </g>
     <g id="text_4">
      <!-- 0.03 -->
      <g transform="translate(622.881783 655.398438) scale(0.1 -0.1)">
       <defs>
        <path id="DejaVuSans-33" d="M 2597 2516 
Q 3050 2419 3304 2112 
Q 3559 1806 3559 1356 
Q 3559 666 3084 287 
Q 2609 -91 1734 -91 
Q 1441 -91 1130 -33 
Q 819 25 488 141 
L 488 750 
Q 750 597 1062 519 
Q 1375 441 1716 441 
Q 2309 441 2620 675 
Q 2931 909 2931 1356 
Q 2931 1769 2642 2001 
Q 2353 2234 1838 2234 
L 1294 2234 
L 1294 2753 
L 1863 2753 
Q 2328 2753 2575 2939 
Q 2822 3125 2822 3475 
Q 2822 3834 2567 4026 
Q 2313 4219 1838 4219 
Q 1578 4219 1281 4162 
Q 984 4106 628 3988 
L 628 4550 
Q 988 4650 1302 4700 
Q 1616 4750 1894 4750 
Q 2613 4750 3031 4423 
Q 3450 4097 3450 3541 
Q 3450 3153 3228 2886 
Q 3006 2619 2597 2516 
z
" transform="scale(0.015625)"/>
       </defs>
       <use xlink:href="#DejaVuSans-30"/>
       <use xlink:href="#DejaVuSans-2e" transform="translate(63.623047 0)"/>
       <use xlink:href="#DejaVuSans-30" transform="translate(95.410156 0)"/>
       <use xlink:href="#DejaVuSans-33" transform="translate(159.033203 0)"/>
      </g>
     </g>
    </g>
    <g id="xtick_5">
     <g id="line2d_9">
      <path d="M 788.168302 640.8 
L 788.168302 86.4 
" clip-path="url(#pa2dfdf422f)" style="fill: none; stroke: #b0b0b0; stroke-width: 0.8; stroke-linecap: square"/>
     </g>
     <g id="line2d_10">
      <g>
       <use xlink:href="#mfe548b8d4a" x="788.168302" y="640.8" style="stroke: #000000; stroke-width: 0.8"/>
      </g>
     </g>
     <g id="text_5">
      <!-- 0.04 -->
      <g transform="translate(777.035489 655.398438) scale(0.1 -0.1)">
       <defs>
        <path id="DejaVuSans-34" d="M 2419 4116 
L 825 1625 
L 2419 1625 
L 2419 4116 
z
M 2253 4666 
L 3047 4666 
L 3047 1625 
L 3713 1625 
L 3713 1100 
L 3047 1100 
L 3047 0 
L 2419 0 
L 2419 1100 
L 313 1100 
L 313 1709 
L 2253 4666 
z
" transform="scale(0.015625)"/>
       </defs>
       <use xlink:href="#DejaVuSans-30"/>
       <use xlink:href="#DejaVuSans-2e" transform="translate(63.623047 0)"/>
       <use xlink:href="#DejaVuSans-30" transform="translate(95.410156 0)"/>
       <use xlink:href="#DejaVuSans-34" transform="translate(159.033203 0)"/>
      </g>
     </g>
    </g>
    <g id="xtick_6">
     <g id="line2d_11">
      <path d="M 942.322009 640.8 
L 942.322009 86.4 
" clip-path="url(#pa2dfdf422f)" style="fill: none; stroke: #b0b0b0; stroke-width: 0.8; stroke-linecap: square"/>
     </g>
     <g id="line2d_12">
      <g>
       <use xlink:href="#mfe548b8d4a" x="942.322009" y="640.8" style="stroke: #000000; stroke-width: 0.8"/>
      </g>
     </g>
     <g id="text_6">
      <!-- 0.05 -->
      <g transform="translate(931.189196 655.398438) scale(0.1 -0.1)">
       <defs>
        <path id="DejaVuSans-35" d="M 691 4666 
L 3169 4666 
L 3169 4134 
L 1269 4134 
L 1269 2991 
Q 1406 3038 1543 3061 
Q 1681 3084 1819 3084 
Q 2600 3084 3056 2656 
Q 3513 2228 3513 1497 
Q 3513 744 3044 326 
Q 2575 -91 1722 -91 
Q 1428 -91 1123 -41 
Q 819 9 494 109 
L 494 744 
Q 775 591 1075 516 
Q 1375 441 1709 441 
Q 2250 441 2565 725 
Q 2881 1009 2881 1497 
Q 2881 1984 2565 2268 
Q 2250 2553 1709 2553 
Q 1456 2553 1204 2497 
Q 953 2441 691 2322 
L 691 4666 
z
" transform="scale(0.015625)"/>
       </defs>
       <use xlink:href="#DejaVuSans-30"/>
       <use xlink:href="#DejaVuSans-2e" transform="translate(63.623047 0)"/>
       <use xlink:href="#DejaVuSans-30" transform="translate(95.410156 0)"/>
       <use xlink:href="#DejaVuSans-35" transform="translate(159.033203 0)"/>
      </g>
     </g>
    </g>
    <g id="text_7">
     <!-- Fraction of Nyquist -->
     <g transform="translate(506.546094 669.076563) scale(0.1 -0.1)">
      <defs>
       <path id="DejaVuSans-46" d="M 628 4666 
L 3309 4666 
L 3309 4134 
L 1259 4134 
L 1259 2759 
L 3109 2759 
L 3109 2228 
L 1259 2228 
L 1259 0 
L 628 0 
L 628 4666 
z
" transform="scale(0.015625)"/>
       <path id="DejaVuSans-72" d="M 2631 2963 
Q 2534 3019 2420 3045 
Q 2306 3072 2169 3072 
Q 1681 3072 1420 2755 
Q 1159 2438 1159 1844 
L 1159 0 
L 581 0 
L 581 3500 
L 1159 3500 
L 1159 2956 
Q 1341 3275 1631 3429 
Q 1922 3584 2338 3584 
Q 2397 3584 2469 3576 
Q 2541 3569 2628 3553 
L 2631 2963 
z
" transform="scale(0.015625)"/>
       <path id="DejaVuSans-61" d="M 2194 1759 
Q 1497 1759 1228 1600 
Q 959 1441 959 1056 
Q 959 750 1161 570 
Q 1363 391 1709 391 
Q 2188 391 2477 730 
Q 2766 1069 2766 1631 
L 2766 1759 
L 2194 1759 
z
M 3341 1997 
L 3341 0 
L 2766 0 
L 2766 531 
Q 2569 213 2275 61 
Q 1981 -91 1556 -91 
Q 1019 -91 701 211 
Q 384 513 384 1019 
Q 384 1609 779 1909 
Q 1175 2209 1959 2209 
L 2766 2209 
L 2766 2266 
Q 2766 2663 2505 2880 
Q 2244 3097 1772 3097 
Q 1472 3097 1187 3025 
Q 903 2953 641 2809 
L 641 3341 
Q 956 3463 1253 3523 
Q 1550 3584 1831 3584 
Q 2591 3584 2966 3190 
Q 3341 2797 3341 1997 
z
" transform="scale(0.015625)"/>
       <path id="DejaVuSans-63" d="M 3122 3366 
L 3122 2828 
Q 2878 2963 2633 3030 
Q 2388 3097 2138 3097 
Q 1578 3097 1268 2742 
Q 959 2388 959 1747 
Q 959 1106 1268 751 
Q 1578 397 2138 397 
Q 2388 397 2633 464 
Q 2878 531 3122 666 
L 3122 134 
Q 2881 22 2623 -34 
Q 2366 -91 2075 -91 
Q 1284 -91 818 406 
Q 353 903 353 1747 
Q 353 2603 823 3093 
Q 1294 3584 2113 3584 
Q 2378 3584 2631 3529 
Q 2884 3475 3122 3366 
z
" transform="scale(0.015625)"/>
       <path id="DejaVuSans-74" d="M 1172 4494 
L 1172 3500 
L 2356 3500 
L 2356 3053 
L 1172 3053 
L 1172 1153 
Q 1172 725 1289 603 
Q 1406 481 1766 481 
L 2356 481 
L 2356 0 
L 1766 0 
Q 1100 0 847 248 
Q 594 497 594 1153 
L 594 3053 
L 172 3053 
L 172 3500 
L 594 3500 
L 594 4494 
L 1172 4494 
z
" transform="scale(0.015625)"/>
       <path id="DejaVuSans-69" d="M 603 3500 
L 1178 3500 
L 1178 0 
L 603 0 
L 603 3500 
z
M 603 4863 
L 1178 4863 
L 1178 4134 
L 603 4134 
L 603 4863 
z
" transform="scale(0.015625)"/>
       <path id="DejaVuSans-6f" d="M 1959 3097 
Q 1497 3097 1228 2736 
Q 959 2375 959 1747 
Q 959 1119 1226 758 
Q 1494 397 1959 397 
Q 2419 397 2687 759 
Q 2956 1122 2956 1747 
Q 2956 2369 2687 2733 
Q 2419 3097 1959 3097 
z
M 1959 3584 
Q 2709 3584 3137 3096 
Q 3566 2609 3566 1747 
Q 3566 888 3137 398 
Q 2709 -91 1959 -91 
Q 1206 -91 779 398 
Q 353 888 353 1747 
Q 353 2609 779 3096 
Q 1206 3584 1959 3584 
z
" transform="scale(0.015625)"/>
       <path id="DejaVuSans-6e" d="M 3513 2113 
L 3513 0 
L 2938 0 
L 2938 2094 
Q 2938 2591 2744 2837 
Q 2550 3084 2163 3084 
Q 1697 3084 1428 2787 
Q 1159 2491 1159 1978 
L 1159 0 
L 581 0 
L 581 3500 
L 1159 3500 
L 1159 2956 
Q 1366 3272 1645 3428 
Q 1925 3584 2291 3584 
Q 2894 3584 3203 3211 
Q 3513 2838 3513 2113 
z
" transform="scale(0.015625)"/>
       <path id="DejaVuSans-20" transform="scale(0.015625)"/>
       <path id="DejaVuSans-66" d="M 2375 4863 
L 2375 4384 
L 1825 4384 
Q 1516 4384 1395 4259 
Q 1275 4134 1275 3809 
L 1275 3500 
L 2222 3500 
L 2222 3053 
L 1275 3053 
L 1275 0 
L 697 0 
L 697 3053 
L 147 3053 
L 147 3500 
L 697 3500 
L 697 3744 
Q 697 4328 969 4595 
Q 1241 4863 1831 4863 
L 2375 4863 
z
" transform="scale(0.015625)"/>
       <path id="DejaVuSans-4e" d="M 628 4666 
L 1478 4666 
L 3547 763 
L 3547 4666 
L 4159 4666 
L 4159 0 
L 3309 0 
L 1241 3903 
L 1241 0 
L 628 0 
L 628 4666 
z
" transform="scale(0.015625)"/>
       <path id="DejaVuSans-79" d="M 2059 -325 
Q 1816 -950 1584 -1140 
Q 1353 -1331 966 -1331 
L 506 -1331 
L 506 -850 
L 844 -850 
Q 1081 -850 1212 -737 
Q 1344 -625 1503 -206 
L 1606 56 
L 191 3500 
L 800 3500 
L 1894 763 
L 2988 3500 
L 3597 3500 
L 2059 -325 
z
" transform="scale(0.015625)"/>
       <path id="DejaVuSans-71" d="M 947 1747 
Q 947 1113 1208 752 
Q 1469 391 1925 391 
Q 2381 391 2643 752 
Q 2906 1113 2906 1747 
Q 2906 2381 2643 2742 
Q 2381 3103 1925 3103 
Q 1469 3103 1208 2742 
Q 947 2381 947 1747 
z
M 2906 525 
Q 2725 213 2448 61 
Q 2172 -91 1784 -91 
Q 1150 -91 751 415 
Q 353 922 353 1747 
Q 353 2572 751 3078 
Q 1150 3584 1784 3584 
Q 2172 3584 2448 3432 
Q 2725 3281 2906 2969 
L 2906 3500 
L 3481 3500 
L 3481 -1331 
L 2906 -1331 
L 2906 525 
z
" transform="scale(0.015625)"/>
       <path id="DejaVuSans-75" d="M 544 1381 
L 544 3500 
L 1119 3500 
L 1119 1403 
Q 1119 906 1312 657 
Q 1506 409 1894 409 
Q 2359 409 2629 706 
Q 2900 1003 2900 1516 
L 2900 3500 
L 3475 3500 
L 3475 0 
L 2900 0 
L 2900 538 
Q 2691 219 2414 64 
Q 2138 -91 1772 -91 
Q 1169 -91 856 284 
Q 544 659 544 1381 
z
M 1991 3584 
L 1991 3584 
z
" transform="scale(0.015625)"/>
       <path id="DejaVuSans-73" d="M 2834 3397 
L 2834 2853 
Q 2591 2978 2328 3040 
Q 2066 3103 1784 3103 
Q 1356 3103 1142 2972 
Q 928 2841 928 2578 
Q 928 2378 1081 2264 
Q 1234 2150 1697 2047 
L 1894 2003 
Q 2506 1872 2764 1633 
Q 3022 1394 3022 966 
Q 3022 478 2636 193 
Q 2250 -91 1575 -91 
Q 1294 -91 989 -36 
Q 684 19 347 128 
L 347 722 
Q 666 556 975 473 
Q 1284 391 1588 391 
Q 1994 391 2212 530 
Q 2431 669 2431 922 
Q 2431 1156 2273 1281 
Q 2116 1406 1581 1522 
L 1381 1569 
Q 847 1681 609 1914 
Q 372 2147 372 2553 
Q 372 3047 722 3315 
Q 1072 3584 1716 3584 
Q 2034 3584 2315 3537 
Q 2597 3491 2834 3397 
z
" transform="scale(0.015625)"/>
      </defs>
      <use xlink:href="#DejaVuSans-46"/>
      <use xlink:href="#DejaVuSans-72" transform="translate(50.269531 0)"/>
      <use xlink:href="#DejaVuSans-61" transform="translate(91.382812 0)"/>
      <use xlink:href="#DejaVuSans-63" transform="translate(152.662109 0)"/>
      <use xlink:href="#DejaVuSans-74" transform="translate(207.642578 0)"/>
      <use xlink:href="#DejaVuSans-69" transform="translate(246.851562 0)"/>
      <use xlink:href="#DejaVuSans-6f" transform="translate(274.634766 0)"/>
      <use xlink:href="#DejaVuSans-6e" transform="translate(335.816406 0)"/>
      <use xlink:href="#DejaVuSans-20" transform="translate(399.195312 0)"/>
      <use xlink:href="#DejaVuSans-6f" transform="translate(430.982422 0)"/>
      <use xlink:href="#DejaVuSans-66" transform="translate(492.164062 0)"/>
      <use xlink:href="#DejaVuSans-20" transform="translate(527.369141 0)"/>
      <use xlink:href="#DejaVuSans-4e" transform="translate(559.15625 0)"/>
      <use xlink:href="#DejaVuSans-79" transform="translate(633.960938 0)"/>
      <use xlink:href="#DejaVuSans-71" transform="translate(693.140625 0)"/>
      <use xlink:href="#DejaVuSans-75" transform="translate(756.617188 0)"/>
      <use xlink:href="#DejaVuSans-69" transform="translate(819.996094 0)"/>
      <use xlink:href="#DejaVuSans-73" transform="translate(847.779297 0)"/>
      <use xlink:href="#DejaVuSans-74" transform="translate(899.878906 0)"/>
     </g>
    </g>
   </g>
   <g id="matplotlib.axis_2">
    <g id="ytick_1">
     <g id="line2d_13">
      <path d="M 135 635.000667 
L 972 635.000667 
" clip-path="url(#pa2dfdf422f)" style="fill: none; stroke: #b0b0b0; stroke-width: 0.8; stroke-linecap: square"/>
     </g>
     <g id="line2d_14">
      <defs>
       <path id="m343e0f4aae" d="M 0 0 
L -3.5 0 
" style="stroke: #000000; stroke-width: 0.8"/>
      </defs>
      <g>
       <use xlink:href="#m343e0f4aae" x="135" y="635.000667" style="stroke: #000000; stroke-width: 0.8"/>
      </g>
     </g>
     <g id="text_8">
      <!-- 0.0 -->
      <g transform="translate(112.096875 638.799886) scale(0.1 -0.1)">
       <use xlink:href="#DejaVuSans-30"/>
       <use xlink:href="#DejaVuSans-2e" transform="translate(63.623047 0)"/>
       <use xlink:href="#DejaVuSans-30" transform="translate(95.410156 0)"/>
      </g>
     </g>
    </g>
    <g id="ytick_2">
     <g id="line2d_15">
      <path d="M 135 527.850179 
L 972 527.850179 
" clip-path="url(#pa2dfdf422f)" style="fill: none; stroke: #b0b0b0; stroke-width: 0.8; stroke-linecap: square"/>
     </g>
     <g id="line2d_16">
      <g>
       <use xlink:href="#m343e0f4aae" x="135" y="527.850179" style="stroke: #000000; stroke-width: 0.8"/>
      </g>
     </g>
     <g id="text_9">
      <!-- 0.2 -->
      <g transform="translate(112.096875 531.649398) scale(0.1 -0.1)">
       <use xlink:href="#DejaVuSans-30"/>
       <use xlink:href="#DejaVuSans-2e" transform="translate(63.623047 0)"/>
       <use xlink:href="#DejaVuSans-32" transform="translate(95.410156 0)"/>
      </g>
     </g>
    </g>
    <g id="ytick_3">
     <g id="line2d_17">
      <path d="M 135 420.699691 
L 972 420.699691 
" clip-path="url(#pa2dfdf422f)" style="fill: none; stroke: #b0b0b0; stroke-width: 0.8; stroke-linecap: square"/>
     </g>
     <g id="line2d_18">
      <g>
       <use xlink:href="#m343e0f4aae" x="135" y="420.699691" style="stroke: #000000; stroke-width: 0.8"/>
      </g>
     </g>
     <g id="text_10">
      <!-- 0.4 -->
      <g transform="translate(112.096875 424.49891) scale(0.1 -0.1)">
       <use xlink:href="#DejaVuSans-30"/>
       <use xlink:href="#DejaVuSans-2e" transform="translate(63.623047 0)"/>
       <use xlink:href="#DejaVuSans-34" transform="translate(95.410156 0)"/>
      </g>
     </g>
    </g>
    <g id="ytick_4">
     <g id="line2d_19">
      <path d="M 135 313.549203 
L 972 313.549203 
" clip-path="url(#pa2dfdf422f)" style="fill: none; stroke: #b0b0b0; stroke-width: 0.8; stroke-linecap: square"/>
     </g>
     <g id="line2d_20">
      <g>
       <use xlink:href="#m343e0f4aae" x="135" y="313.549203" style="stroke: #000000; stroke-width: 0.8"/>
      </g>
     </g>
     <g id="text_11">
      <!-- 0.6 -->
      <g transform="translate(112.096875 317.348422) scale(0.1 -0.1)">
       <defs>
        <path id="DejaVuSans-36" d="M 2113 2584 
Q 1688 2584 1439 2293 
Q 1191 2003 1191 1497 
Q 1191 994 1439 701 
Q 1688 409 2113 409 
Q 2538 409 2786 701 
Q 3034 994 3034 1497 
Q 3034 2003 2786 2293 
Q 2538 2584 2113 2584 
z
M 3366 4563 
L 3366 3988 
Q 3128 4100 2886 4159 
Q 2644 4219 2406 4219 
Q 1781 4219 1451 3797 
Q 1122 3375 1075 2522 
Q 1259 2794 1537 2939 
Q 1816 3084 2150 3084 
Q 2853 3084 3261 2657 
Q 3669 2231 3669 1497 
Q 3669 778 3244 343 
Q 2819 -91 2113 -91 
Q 1303 -91 875 529 
Q 447 1150 447 2328 
Q 447 3434 972 4092 
Q 1497 4750 2381 4750 
Q 2619 4750 2861 4703 
Q 3103 4656 3366 4563 
z
" transform="scale(0.015625)"/>
       </defs>
       <use xlink:href="#DejaVuSans-30"/>
       <use xlink:href="#DejaVuSans-2e" transform="translate(63.623047 0)"/>
       <use xlink:href="#DejaVuSans-36" transform="translate(95.410156 0)"/>
      </g>
     </g>
    </g>
    <g id="ytick_5">
     <g id="line2d_21">
      <path d="M 135 206.398715 
L 972 206.398715 
" clip-path="url(#pa2dfdf422f)" style="fill: none; stroke: #b0b0b0; stroke-width: 0.8; stroke-linecap: square"/>
     </g>
     <g id="line2d_22">
      <g>
       <use xlink:href="#m343e0f4aae" x="135" y="206.398715" style="stroke: #000000; stroke-width: 0.8"/>
      </g>
     </g>
     <g id="text_12">
      <!-- 0.8 -->
      <g transform="translate(112.096875 210.197934) scale(0.1 -0.1)">
       <defs>
        <path id="DejaVuSans-38" d="M 2034 2216 
Q 1584 2216 1326 1975 
Q 1069 1734 1069 1313 
Q 1069 891 1326 650 
Q 1584 409 2034 409 
Q 2484 409 2743 651 
Q 3003 894 3003 1313 
Q 3003 1734 2745 1975 
Q 2488 2216 2034 2216 
z
M 1403 2484 
Q 997 2584 770 2862 
Q 544 3141 544 3541 
Q 544 4100 942 4425 
Q 1341 4750 2034 4750 
Q 2731 4750 3128 4425 
Q 3525 4100 3525 3541 
Q 3525 3141 3298 2862 
Q 3072 2584 2669 2484 
Q 3125 2378 3379 2068 
Q 3634 1759 3634 1313 
Q 3634 634 3220 271 
Q 2806 -91 2034 -91 
Q 1263 -91 848 271 
Q 434 634 434 1313 
Q 434 1759 690 2068 
Q 947 2378 1403 2484 
z
M 1172 3481 
Q 1172 3119 1398 2916 
Q 1625 2713 2034 2713 
Q 2441 2713 2670 2916 
Q 2900 3119 2900 3481 
Q 2900 3844 2670 4047 
Q 2441 4250 2034 4250 
Q 1625 4250 1398 4047 
Q 1172 3844 1172 3481 
z
" transform="scale(0.015625)"/>
       </defs>
       <use xlink:href="#DejaVuSans-30"/>
       <use xlink:href="#DejaVuSans-2e" transform="translate(63.623047 0)"/>
       <use xlink:href="#DejaVuSans-38" transform="translate(95.410156 0)"/>
      </g>
     </g>
    </g>
    <g id="ytick_6">
     <g id="line2d_23">
      <path d="M 135 99.248227 
L 972 99.248227 
" clip-path="url(#pa2dfdf422f)" style="fill: none; stroke: #b0b0b0; stroke-width: 0.8; stroke-linecap: square"/>
     </g>
     <g id="line2d_24">
      <g>
       <use xlink:href="#m343e0f4aae" x="135" y="99.248227" style="stroke: #000000; stroke-width: 0.8"/>
      </g>
     </g>
     <g id="text_13">
      <!-- 1.0 -->
      <g transform="translate(112.096875 103.047446) scale(0.1 -0.1)">
       <use xlink:href="#DejaVuSans-31"/>
       <use xlink:href="#DejaVuSans-2e" transform="translate(63.623047 0)"/>
       <use xlink:href="#DejaVuSans-30" transform="translate(95.410156 0)"/>
      </g>
     </g>
    </g>
    <g id="text_14">
     <!-- Fourier Ring Correlation -->
     <g transform="translate(106.017187 423.052344) rotate(-90) scale(0.1 -0.1)">
      <defs>
       <path id="DejaVuSans-65" d="M 3597 1894 
L 3597 1613 
L 953 1613 
Q 991 1019 1311 708 
Q 1631 397 2203 397 
Q 2534 397 2845 478 
Q 3156 559 3463 722 
L 3463 178 
Q 3153 47 2828 -22 
Q 2503 -91 2169 -91 
Q 1331 -91 842 396 
Q 353 884 353 1716 
Q 353 2575 817 3079 
Q 1281 3584 2069 3584 
Q 2775 3584 3186 3129 
Q 3597 2675 3597 1894 
z
M 3022 2063 
Q 3016 2534 2758 2815 
Q 2500 3097 2075 3097 
Q 1594 3097 1305 2825 
Q 1016 2553 972 2059 
L 3022 2063 
z
" transform="scale(0.015625)"/>
       <path id="DejaVuSans-52" d="M 2841 2188 
Q 3044 2119 3236 1894 
Q 3428 1669 3622 1275 
L 4263 0 
L 3584 0 
L 2988 1197 
Q 2756 1666 2539 1819 
Q 2322 1972 1947 1972 
L 1259 1972 
L 1259 0 
L 628 0 
L 628 4666 
L 2053 4666 
Q 2853 4666 3247 4331 
Q 3641 3997 3641 3322 
Q 3641 2881 3436 2590 
Q 3231 2300 2841 2188 
z
M 1259 4147 
L 1259 2491 
L 2053 2491 
Q 2509 2491 2742 2702 
Q 2975 2913 2975 3322 
Q 2975 3731 2742 3939 
Q 2509 4147 2053 4147 
L 1259 4147 
z
" transform="scale(0.015625)"/>
       <path id="DejaVuSans-67" d="M 2906 1791 
Q 2906 2416 2648 2759 
Q 2391 3103 1925 3103 
Q 1463 3103 1205 2759 
Q 947 2416 947 1791 
Q 947 1169 1205 825 
Q 1463 481 1925 481 
Q 2391 481 2648 825 
Q 2906 1169 2906 1791 
z
M 3481 434 
Q 3481 -459 3084 -895 
Q 2688 -1331 1869 -1331 
Q 1566 -1331 1297 -1286 
Q 1028 -1241 775 -1147 
L 775 -588 
Q 1028 -725 1275 -790 
Q 1522 -856 1778 -856 
Q 2344 -856 2625 -561 
Q 2906 -266 2906 331 
L 2906 616 
Q 2728 306 2450 153 
Q 2172 0 1784 0 
Q 1141 0 747 490 
Q 353 981 353 1791 
Q 353 2603 747 3093 
Q 1141 3584 1784 3584 
Q 2172 3584 2450 3431 
Q 2728 3278 2906 2969 
L 2906 3500 
L 3481 3500 
L 3481 434 
z
" transform="scale(0.015625)"/>
       <path id="DejaVuSans-43" d="M 4122 4306 
L 4122 3641 
Q 3803 3938 3442 4084 
Q 3081 4231 2675 4231 
Q 1875 4231 1450 3742 
Q 1025 3253 1025 2328 
Q 1025 1406 1450 917 
Q 1875 428 2675 428 
Q 3081 428 3442 575 
Q 3803 722 4122 1019 
L 4122 359 
Q 3791 134 3420 21 
Q 3050 -91 2638 -91 
Q 1578 -91 968 557 
Q 359 1206 359 2328 
Q 359 3453 968 4101 
Q 1578 4750 2638 4750 
Q 3056 4750 3426 4639 
Q 3797 4528 4122 4306 
z
" transform="scale(0.015625)"/>
       <path id="DejaVuSans-6c" d="M 603 4863 
L 1178 4863 
L 1178 0 
L 603 0 
L 603 4863 
z
" transform="scale(0.015625)"/>
      </defs>
      <use xlink:href="#DejaVuSans-46"/>
      <use xlink:href="#DejaVuSans-6f" transform="translate(53.894531 0)"/>
      <use xlink:href="#DejaVuSans-75" transform="translate(115.076172 0)"/>
      <use xlink:href="#DejaVuSans-72" transform="translate(178.455078 0)"/>
      <use xlink:href="#DejaVuSans-69" transform="translate(219.568359 0)"/>
      <use xlink:href="#DejaVuSans-65" transform="translate(247.351562 0)"/>
      <use xlink:href="#DejaVuSans-72" transform="translate(308.875 0)"/>
      <use xlink:href="#DejaVuSans-20" transform="translate(349.988281 0)"/>
      <use xlink:href="#DejaVuSans-52" transform="translate(381.775391 0)"/>
      <use xlink:href="#DejaVuSans-69" transform="translate(451.257812 0)"/>
      <use xlink:href="#DejaVuSans-6e" transform="translate(479.041016 0)"/>
      <use xlink:href="#DejaVuSans-67" transform="translate(542.419922 0)"/>
      <use xlink:href="#DejaVuSans-20" transform="translate(605.896484 0)"/>
      <use xlink:href="#DejaVuSans-43" transform="translate(637.683594 0)"/>
      <use xlink:href="#DejaVuSans-6f" transform="translate(707.507812 0)"/>
      <use xlink:href="#DejaVuSans-72" transform="translate(768.689453 0)"/>
      <use xlink:href="#DejaVuSans-72" transform="translate(808.052734 0)"/>
      <use xlink:href="#DejaVuSans-65" transform="translate(846.916016 0)"/>
      <use xlink:href="#DejaVuSans-6c" transform="translate(908.439453 0)"/>
      <use xlink:href="#DejaVuSans-61" transform="translate(936.222656 0)"/>
      <use xlink:href="#DejaVuSans-74" transform="translate(997.501953 0)"/>
      <use xlink:href="#DejaVuSans-69" transform="translate(1036.710938 0)"/>
      <use xlink:href="#DejaVuSans-6f" transform="translate(1064.494141 0)"/>
      <use xlink:href="#DejaVuSans-6e" transform="translate(1125.675781 0)"/>
     </g>
    </g>
   </g>
   <g id="line2d_25">
    <path d="M 173.045455 391.156159 
L 174.537428 360.044479 
L 176.02942 367.295352 
L 177.521397 524.360824 
L 179.013373 356.067589 
L 180.50535 242.648797 
L 181.997327 213.346889 
L 183.489303 218.535115 
L 184.981296 242.696479 
L 186.473272 232.158229 
L 187.965295 257.466638 
L 189.457195 225.052008 
L 190.949248 226.520506 
L 192.441148 256.083325 
L 193.933202 257.940243 
L 195.425101 250.235587 
L 196.917155 237.398423 
L 198.409055 251.659082 
L 201.393008 272.65897 
L 202.885062 237.475571 
L 204.376961 231.240485 
L 205.869015 246.130116 
L 207.360914 228.971573 
L 208.852968 244.807344 
L 210.344868 225.810098 
L 211.836921 218.709235 
L 213.328975 251.46246 
L 214.820875 253.054181 
L 216.312928 242.451104 
L 217.804828 274.865199 
L 219.296882 240.055755 
L 220.788781 248.582791 
L 222.280835 224.686089 
L 223.772735 248.520108 
L 225.264788 246.212087 
L 226.756688 231.176194 
L 228.248742 202.787744 
L 229.740641 243.01418 
L 231.232695 233.11669 
L 232.724595 240.170406 
L 234.216648 241.192622 
L 235.708548 238.59958 
L 237.200602 222.001434 
L 238.692501 254.2248 
L 240.184555 279.727152 
L 241.676454 250.382384 
L 243.168508 237.29663 
L 244.660408 240.862063 
L 246.152462 227.652551 
L 247.644361 263.966387 
L 249.136415 252.817914 
L 250.628314 251.181726 
L 252.120368 272.572178 
L 253.612422 264.748585 
L 255.104321 277.893271 
L 256.596375 270.69008 
L 258.088275 266.999281 
L 259.580328 284.502849 
L 261.072228 332.740927 
L 262.564282 307.631282 
L 264.056181 310.273077 
L 265.548235 317.120529 
L 267.040135 291.853908 
L 268.532188 282.463775 
L 270.024088 298.310797 
L 271.516142 310.690964 
L 273.008041 342.114452 
L 274.500095 282.312693 
L 275.991995 291.475667 
L 277.484048 356.292069 
L 278.975948 321.993198 
L 280.468002 364.462829 
L 281.959901 355.326643 
L 283.451955 360.765602 
L 284.943854 322.388583 
L 286.435908 332.470908 
L 287.927808 363.898146 
L 289.419861 344.534982 
L 290.911761 354.424972 
L 292.403815 345.296822 
L 293.895714 379.271027 
L 295.387768 366.823355 
L 296.879822 372.023903 
L 298.371721 367.127126 
L 299.863775 377.498758 
L 301.355675 410.779163 
L 302.847728 392.086761 
L 304.339628 384.305492 
L 305.831682 387.887533 
L 307.323581 396.418319 
L 308.815635 381.780491 
L 310.307535 361.683881 
L 311.799588 426.635293 
L 313.291488 390.475753 
L 314.783542 392.120513 
L 316.275441 413.11183 
L 317.767495 394.856065 
L 319.259394 427.524642 
L 320.751448 423.725621 
L 322.243348 413.246839 
L 323.735402 427.17801 
L 325.227301 404.569257 
L 326.719971 440.908809 
L 328.210638 430.381274 
L 329.702846 430.01214 
L 331.195054 440.688615 
L 332.687261 452.488562 
L 334.179469 445.435917 
L 335.671677 441.544212 
L 337.163885 437.042284 
L 338.654551 449.86659 
L 340.146759 473.972771 
L 341.638967 478.163962 
L 343.131175 425.901312 
L 344.623383 427.149615 
L 346.115591 476.32901 
L 347.607799 427.645186 
L 349.098465 452.318193 
L 350.590673 479.81033 
L 352.082881 467.738756 
L 353.575089 476.346154 
L 355.067297 455.041423 
L 356.559504 471.028276 
L 358.050171 459.309762 
L 359.542379 462.941093 
L 361.034587 478.630603 
L 362.526794 496.950122 
L 364.019002 482.486949 
L 365.51121 485.106778 
L 367.003418 464.112247 
L 368.494084 504.343505 
L 369.986292 502.505874 
L 371.4785 487.473197 
L 372.970708 513.031803 
L 374.462916 507.509266 
L 375.955124 498.13092 
L 377.447332 489.670853 
L 378.937998 531.401147 
L 380.430206 469.852299 
L 381.922414 459.511741 
L 383.414622 498.549343 
L 384.90683 507.94269 
L 386.399037 490.651816 
L 387.891245 486.334723 
L 389.381912 501.600453 
L 390.87412 464.129391 
L 392.366327 516.879577 
L 393.858535 541.090765 
L 395.350743 511.616345 
L 396.842951 485.923801 
L 398.333617 506.569557 
L 399.825825 500.386438 
L 401.318033 489.792469 
L 402.810241 505.514124 
L 404.302449 534.705132 
L 405.794657 496.410619 
L 407.286865 490.26661 
L 408.777531 515.863254 
L 410.269739 522.131558 
L 413.254155 519.985334 
L 414.746363 516.293464 
L 416.23857 526.085411 
L 417.730778 536.64027 
L 420.713653 495.203033 
L 422.20586 532.462472 
L 423.698068 468.285223 
L 425.190276 546.645982 
L 426.682484 528.173774 
L 428.174692 516.478834 
L 429.665358 535.760564 
L 431.157566 526.383289 
L 432.649774 546.265598 
L 434.141982 530.600732 
L 435.63419 546.821173 
L 437.126398 553.662196 
L 438.617064 519.7121 
L 440.109272 555.855567 
L 441.60148 543.300744 
L 443.093688 518.082877 
L 444.585896 522.241387 
L 446.078104 555.321421 
L 447.570311 523.685776 
L 449.060978 526.45133 
L 450.553186 557.690519 
L 452.045394 535.052299 
L 453.537601 524.353859 
L 455.029809 550.665197 
L 456.522017 537.705346 
L 458.014225 570.029969 
L 459.504891 538.31021 
L 460.997099 535.332498 
L 462.489307 564.365994 
L 463.981515 536.332748 
L 465.473723 576.967427 
L 466.965931 550.01908 
L 468.458139 554.780847 
L 469.948805 542.208881 
L 471.441013 546.33471 
L 472.933221 530.253029 
L 474.425429 540.060513 
L 475.917637 573.912031 
L 477.409844 533.417183 
L 478.900511 542.733382 
L 480.392719 555.394284 
L 481.884927 537.984473 
L 483.377134 558.100369 
L 484.869342 576.102723 
L 486.36155 552.487827 
L 487.853758 536.399717 
L 489.344424 565.189981 
L 490.836632 575.173192 
L 492.32884 567.201732 
L 493.821048 541.250419 
L 495.313256 555.64823 
L 496.805464 553.141445 
L 498.297672 561.767059 
L 499.788338 534.037584 
L 501.280546 542.644447 
L 502.772754 524.81032 
L 504.264962 544.998008 
L 505.75717 522.837144 
L 507.249377 581.051468 
L 508.741585 553.093763 
L 510.232252 538.21056 
L 511.72446 539.487794 
L 513.216667 551.82403 
L 514.708875 527.073874 
L 516.201083 558.220378 
L 517.693291 522.44658 
L 519.183957 555.066939 
L 520.676165 562.443179 
L 522.168373 558.538079 
L 523.660581 571.710089 
L 525.152789 552.449788 
L 528.137205 580.229624 
L 529.627871 562.384246 
L 531.120079 556.374711 
L 532.612287 549.847103 
L 534.104495 562.100297 
L 535.596703 556.717057 
L 537.08891 566.662765 
L 538.581118 537.628197 
L 540.071785 551.660089 
L 541.563993 541.531689 
L 543.0562 560.790382 
L 544.548408 583.439478 
L 546.040616 560.035507 
L 547.532824 543.012509 
L 549.025032 575.261592 
L 550.515698 568.56415 
L 552.007906 542.603194 
L 553.500114 564.407783 
L 556.48453 550.224273 
L 557.976738 562.571759 
L 559.467404 579.894243 
L 560.959612 542.431754 
L 562.45182 549.26099 
L 563.944028 541.480257 
L 565.436236 547.667126 
L 566.928443 554.627086 
L 568.420651 559.976039 
L 569.911318 587.978479 
L 571.403526 557.784275 
L 572.895733 569.659764 
L 574.387941 564.782274 
L 575.880149 581.478356 
L 577.372357 583.73966 
L 578.864565 563.659337 
L 580.355231 563.621834 
L 581.847439 587.397456 
L 583.339647 540.756456 
L 584.831855 561.487932 
L 586.324063 577.699265 
L 587.816271 566.129155 
L 589.308479 559.416713 
L 590.799145 569.299203 
L 592.291353 537.178701 
L 593.783561 572.280129 
L 595.275769 563.007326 
L 596.767976 580.626081 
L 598.260184 561.8351 
L 599.750851 587.628633 
L 601.243059 563.923463 
L 602.735266 582.869919 
L 604.227474 541.965113 
L 605.719682 593.364774 
L 607.21189 579.050433 
L 608.704098 581.602704 
L 610.194764 576.742947 
L 611.686972 559.004184 
L 613.17918 550.069976 
L 614.671388 575.731982 
L 616.163596 572.858206 
L 617.655804 582.806486 
L 619.148012 585.656153 
L 620.638678 549.479041 
L 622.130886 572.633726 
L 623.623094 562.144229 
L 625.115302 558.533793 
L 626.60751 574.944962 
L 628.099717 576.792236 
L 629.591925 561.881174 
L 631.082592 565.714483 
L 632.574799 589.276072 
L 634.067007 577.23959 
L 635.559215 579.444747 
L 637.051423 551.495078 
L 638.543631 572.175657 
L 640.034297 572.778379 
L 641.526505 563.522184 
L 643.018713 576.616509 
L 644.510921 559.987289 
L 646.003129 593.282482 
L 647.495337 564.001683 
L 648.987545 588.730194 
L 650.478211 558.861138 
L 651.970419 582.414315 
L 653.462627 570.609653 
L 654.954835 575.484465 
L 656.447043 581.524913 
L 657.93925 559.010077 
L 659.431458 566.166658 
L 662.414333 582.234785 
L 663.90654 553.263596 
L 665.398748 569.915854 
L 666.890956 580.810915 
L 668.383164 574.386172 
L 669.875372 585.712247 
L 671.366038 571.231662 
L 672.858246 584.892492 
L 674.350454 565.741806 
L 675.842662 582.437835 
L 677.33487 560.951108 
L 678.827078 572.784272 
L 680.317744 572.610153 
L 681.809952 568.73827 
L 683.30216 567.320133 
L 684.794368 574.268842 
L 686.286576 574.962106 
L 687.778783 579.281878 
L 689.270991 570.122654 
L 690.761658 582.954193 
L 692.253866 569.482966 
L 693.746073 577.396029 
L 695.238281 565.781452 
L 696.730489 594.797054 
L 698.222697 587.309967 
L 699.714905 586.321451 
L 701.205571 592.988675 
L 702.697779 575.792522 
L 704.189987 565.277309 
L 705.682195 586.913457 
L 707.174403 573.87185 
L 708.666611 575.780736 
L 710.157277 576.413995 
L 711.649485 578.553255 
L 713.141693 579.163477 
L 714.633901 581.297379 
L 716.126109 591.956977 
L 717.618316 580.797522 
L 719.110524 591.080057 
L 720.601191 579.055255 
L 722.093399 582.57847 
L 723.585606 567.379602 
L 725.077814 591.645169 
L 726.570022 577.973035 
L 728.06223 604.385737 
L 729.554438 576.230232 
L 731.045104 580.055504 
L 732.537312 582.464783 
L 734.02952 598.625434 
L 735.521728 574.27045 
L 737.013936 576.209338 
L 738.506144 594.568556 
L 739.998352 572.829811 
L 741.489018 588.124043 
L 742.981226 590.41626 
L 744.473434 595.418366 
L 745.965642 579.947282 
L 747.457849 593.045947 
L 748.950057 590.135687 
L 750.442265 581.887296 
L 751.932932 569.806024 
L 753.425139 587.69003 
L 754.917347 571.640441 
L 756.409555 599.119826 
L 757.901763 588.141509 
L 759.393971 563.969537 
L 760.884637 588.783822 
L 762.376845 589.264553 
L 763.869053 596.628845 
L 765.361261 596.051358 
L 766.853469 587.959835 
L 768.345677 578.192693 
L 769.837885 580.948068 
L 771.328551 596.061859 
L 772.820759 584.498874 
L 775.805175 593.85638 
L 777.297382 603.462046 
L 778.78959 576.340061 
L 780.281798 575.76627 
L 781.772465 570.273201 
L 783.264672 585.043413 
L 784.75688 582.280109 
L 786.249088 580.762698 
L 787.741296 586.203907 
L 789.233504 577.86642 
L 790.72417 577.370313 
L 792.216378 596.447975 
L 793.708586 581.334881 
L 795.200794 593.83045 
L 796.693002 596.352611 
L 798.18521 595.511427 
L 799.677418 585.763357 
L 801.168084 568.121619 
L 802.660292 580.165334 
L 804.1525 562.38371 
L 805.644708 587.268286 
L 807.136916 595.056466 
L 808.629123 586.201281 
L 810.121331 586.399938 
L 811.611998 598.423509 
L 813.104205 573.01036 
L 814.596413 588.908546 
L 817.580829 568.781666 
L 819.073037 611.35143 
L 820.565245 583.789967 
L 822.055911 586.966336 
L 823.548119 589.091773 
L 825.040327 583.095257 
L 826.532535 588.65851 
L 828.024743 582.480909 
L 829.516951 590.65992 
L 831.009159 577.383171 
L 832.499825 589.706281 
L 833.992033 583.521823 
L 835.484241 598.137096 
L 836.976449 585.361597 
L 838.468656 590.905884 
L 839.960864 586.442102 
L 841.451531 576.197551 
L 842.943739 583.714265 
L 844.435946 584.745321 
L 845.928154 580.346954 
L 847.420362 588.355863 
L 848.91257 557.979289 
L 850.404778 583.333238 
L 851.895444 588.109578 
L 853.387652 587.299252 
L 854.87986 574.775128 
L 856.372068 573.35967 
L 857.864276 593.946119 
L 859.356484 584.595846 
L 860.848692 601.606843 
L 862.339358 568.994895 
L 863.831566 589.31545 
L 865.323774 582.480213 
L 866.815982 582.394439 
L 868.308189 596.322663 
L 869.800397 575.133547 
L 871.291064 594.081825 
L 872.783272 577.974106 
L 874.275479 579.089543 
L 875.767687 578.965784 
L 877.259895 589.323807 
L 878.752103 586.509339 
L 880.244311 588.482837 
L 881.734977 584.171851 
L 883.227185 584.611436 
L 884.719393 588.308985 
L 886.211601 576.366849 
L 887.703809 601.599503 
L 889.196017 582.099721 
L 890.688225 602.136488 
L 892.178891 595.918598 
L 893.671099 591.264356 
L 895.163307 589.699745 
L 896.655515 583.433959 
L 898.147722 588.762071 
L 899.63993 572.855527 
L 901.132138 584.317308 
L 902.622805 590.43019 
L 904.115012 585.619668 
L 905.60722 575.701444 
L 907.099428 568.486466 
L 908.591636 578.581114 
L 910.083844 599.619523 
L 911.576052 581.680602 
L 913.066718 577.523003 
L 914.558926 604.937991 
L 916.051134 586.892563 
L 917.543342 585.475658 
L 919.03555 572.304774 
L 920.527758 574.880136 
L 922.018424 596.335307 
L 923.510632 567.740699 
L 925.00284 588.262589 
L 926.495048 575.026932 
L 927.987255 585.085898 
L 929.479463 574.228661 
L 930.971671 593.520731 
L 932.462338 573.894887 
L 933.954545 567.977501 
L 933.954545 567.977501 
" clip-path="url(#pa2dfdf422f)" style="fill: none; stroke: #1f77b4; stroke-width: 1.5; stroke-linecap: square"/>
   </g>
   <g id="line2d_26">
    <path d="M 173.045455 142.108958 
L 174.537428 112.08057 
L 176.02942 124.10339 
L 177.521397 137.082529 
L 179.013373 157.186104 
L 180.50535 145.353475 
L 181.997327 123.25583 
L 183.489303 135.158642 
L 184.981296 136.479808 
L 186.473272 141.250683 
L 187.965295 134.559135 
L 189.457195 145.640639 
L 190.949248 134.043205 
L 192.441148 149.243038 
L 193.933202 145.352404 
L 195.425101 154.597348 
L 196.917155 147.480948 
L 198.409055 142.06717 
L 199.901108 157.682746 
L 201.393008 174.726638 
L 202.885062 162.207711 
L 204.376961 163.83372 
L 205.869015 168.151349 
L 207.360914 162.123598 
L 208.852968 181.585341 
L 210.344868 180.221851 
L 211.836921 166.580523 
L 213.328975 182.284498 
L 214.820875 187.771675 
L 216.312928 187.414328 
L 217.804828 216.28817 
L 219.296882 174.322681 
L 220.788781 201.419432 
L 222.280835 193.854072 
L 223.772735 205.887608 
L 225.264788 222.729521 
L 226.756688 194.261244 
L 228.248742 182.44576 
L 229.740641 212.319851 
L 231.232695 210.509008 
L 232.724595 213.446003 
L 234.216648 225.15273 
L 235.708548 234.831097 
L 237.200602 209.386071 
L 238.692501 240.579185 
L 240.184555 236.533719 
L 241.676454 252.842023 
L 243.168508 224.944322 
L 244.660408 229.805204 
L 246.152462 241.592293 
L 249.136415 237.824882 
L 250.628314 235.439176 
L 252.120368 261.859808 
L 253.612422 257.545929 
L 255.104321 262.969887 
L 256.596375 261.796054 
L 258.088275 278.899414 
L 259.580328 266.324769 
L 261.072228 301.218325 
L 264.056181 280.031459 
L 265.548235 297.948628 
L 267.040135 259.387311 
L 268.532188 277.3902 
L 270.024088 270.927418 
L 271.516142 288.176504 
L 273.008041 297.852728 
L 275.991995 278.475634 
L 277.484048 307.407337 
L 278.975948 305.289508 
L 280.468002 315.106636 
L 281.959901 332.816468 
L 283.451955 330.998125 
L 284.943854 316.885334 
L 286.435908 321.36851 
L 287.927808 322.032308 
L 289.419861 305.066099 
L 290.911761 328.991732 
L 292.403815 303.216146 
L 293.895714 349.37229 
L 295.387768 344.004051 
L 296.879822 331.116526 
L 298.371721 334.749463 
L 299.863775 342.947011 
L 301.355675 366.809425 
L 302.847728 334.900545 
L 304.339628 366.180987 
L 305.831682 340.399508 
L 307.323581 347.72003 
L 308.815635 355.611127 
L 310.307535 355.740244 
L 311.799588 380.180734 
L 313.291488 360.398076 
L 314.783542 358.217027 
L 316.275441 380.308243 
L 317.767495 358.754923 
L 319.259394 367.514475 
L 320.751448 364.220133 
L 322.243348 380.924359 
L 323.735402 356.421721 
L 325.227301 354.248173 
L 326.719971 376.148126 
L 328.210638 369.812853 
L 329.702846 390.08519 
L 331.195054 368.961007 
L 332.687261 384.878212 
L 334.179469 407.715731 
L 335.671677 383.842067 
L 337.163885 391.019006 
L 338.654551 376.330282 
L 340.146759 404.781951 
L 341.638967 424.438172 
L 343.131175 381.220094 
L 344.623383 380.000722 
L 346.115591 401.267415 
L 347.607799 380.521473 
L 349.098465 409.833025 
L 350.590673 407.07765 
L 352.082881 411.837275 
L 353.575089 433.489709 
L 355.067297 400.18198 
L 356.559504 407.50143 
L 358.050171 413.738124 
L 359.542379 404.548363 
L 361.034587 428.70919 
L 362.526794 437.660006 
L 364.019002 428.81902 
L 365.51121 446.459204 
L 367.003418 426.028821 
L 368.494084 456.780475 
L 369.986292 421.212942 
L 371.4785 416.684763 
L 375.955124 485.218215 
L 377.447332 430.972744 
L 378.937998 449.336731 
L 380.430206 452.545888 
L 381.922414 423.078432 
L 383.414622 415.497535 
L 384.90683 429.158687 
L 386.399037 429.516569 
L 387.891245 452.374447 
L 389.381912 450.598964 
L 390.87412 455.858445 
L 392.366327 468.377908 
L 393.858535 492.946444 
L 395.350743 452.64018 
L 398.333617 485.863796 
L 399.825825 469.58228 
L 401.318033 473.821689 
L 402.810241 440.477528 
L 404.302449 486.559203 
L 405.794657 473.572028 
L 407.286865 461.656358 
L 408.777531 475.440733 
L 410.269739 475.678607 
L 411.761947 486.637959 
L 413.254155 452.906449 
L 414.746363 466.785652 
L 416.23857 471.627783 
L 417.730778 481.93941 
L 419.221445 467.219612 
L 420.713653 469.916054 
L 422.20586 490.75093 
L 423.698068 472.678393 
L 425.190276 485.843438 
L 426.682484 487.96341 
L 428.174692 467.235684 
L 429.665358 475.361441 
L 431.157566 515.76414 
L 432.649774 470.83594 
L 434.141982 486.164354 
L 435.63419 478.196643 
L 437.126398 493.735607 
L 438.617064 484.418872 
L 440.109272 510.158027 
L 441.60148 498.958122 
L 443.093688 489.496734 
L 444.585896 501.711889 
L 446.078104 515.527338 
L 447.570311 513.338253 
L 449.060978 503.530769 
L 450.553186 534.170451 
L 452.045394 481.508665 
L 453.537601 513.262712 
L 455.029809 495.76343 
L 456.522017 504.531019 
L 458.014225 518.923472 
L 459.504891 507.976443 
L 460.997099 509.29868 
L 462.489307 514.602629 
L 463.981515 491.491876 
L 465.473723 537.614803 
L 466.965931 496.894939 
L 468.458139 505.45412 
L 469.948805 512.857683 
L 471.441013 525.482689 
L 472.933221 489.564239 
L 474.425429 513.395579 
L 475.917637 505.580022 
L 477.409844 515.868612 
L 478.900511 513.096629 
L 480.392719 529.296711 
L 481.884927 505.259106 
L 483.377134 542.169235 
L 484.869342 556.744916 
L 486.36155 509.636204 
L 487.853758 521.24328 
L 489.344424 534.968722 
L 490.836632 527.779996 
L 492.32884 550.632516 
L 493.821048 517.528909 
L 495.313256 514.260819 
L 496.805464 508.038054 
L 498.297672 517.709457 
L 499.788338 484.694249 
L 501.280546 524.43315 
L 502.772754 495.133921 
L 504.264962 535.126769 
L 505.75717 510.762355 
L 507.249377 536.211132 
L 508.741585 553.716307 
L 510.232252 545.502151 
L 511.72446 545.21713 
L 513.216667 533.827034 
L 514.708875 509.845147 
L 516.201083 541.015224 
L 517.693291 517.36604 
L 519.183957 540.844319 
L 520.676165 538.918289 
L 522.168373 553.093227 
L 523.660581 545.478578 
L 525.152789 521.924757 
L 526.644997 551.275955 
L 528.137205 565.968965 
L 529.627871 540.6702 
L 531.120079 525.700741 
L 532.612287 550.808779 
L 534.104495 546.531331 
L 535.596703 545.999329 
L 537.08891 541.625982 
L 538.581118 516.297214 
L 540.071785 553.315029 
L 541.563993 544.847461 
L 543.0562 556.935108 
L 544.548408 555.682519 
L 546.040616 564.143121 
L 547.532824 539.1717 
L 549.025032 542.567299 
L 550.515698 517.977869 
L 552.007906 529.571552 
L 553.500114 565.243021 
L 554.992322 553.676126 
L 556.48453 573.314667 
L 557.976738 577.010823 
L 559.467404 563.101618 
L 560.959612 552.904642 
L 562.45182 529.257065 
L 563.944028 534.459757 
L 565.436236 556.718128 
L 566.928443 537.614803 
L 568.420651 550.124087 
L 569.911318 576.941711 
L 572.895733 530.939864 
L 575.880149 588.69462 
L 577.372357 575.091758 
L 578.864565 558.851494 
L 580.355231 551.821351 
L 581.847439 546.233989 
L 583.339647 556.48829 
L 584.831855 560.412141 
L 586.324063 586.655707 
L 587.816271 586.59147 
L 589.308479 560.238022 
L 590.799145 553.57594 
L 592.291353 529.892468 
L 593.783561 570.796095 
L 595.275769 556.227915 
L 596.767976 572.418353 
L 598.260184 559.965324 
L 599.750851 566.723841 
L 601.243059 560.400355 
L 602.735266 551.441502 
L 604.227474 558.113763 
L 605.719682 588.571022 
L 607.21189 581.018252 
L 608.704098 578.150369 
L 610.194764 581.831845 
L 611.686972 578.862384 
L 613.17918 567.943749 
L 614.671388 564.599582 
L 616.163596 565.299811 
L 617.655804 576.350776 
L 619.148012 568.782202 
L 620.638678 567.668372 
L 622.130886 566.372387 
L 623.623094 553.57219 
L 625.115302 564.131335 
L 626.60751 571.012003 
L 628.099717 580.893421 
L 629.591925 567.366744 
L 631.082592 550.430002 
L 632.574799 567.596581 
L 634.067007 565.38446 
L 635.559215 571.781879 
L 637.051423 550.785741 
L 640.034297 601.286999 
L 641.526505 552.881069 
L 643.018713 568.506289 
L 644.510921 561.678124 
L 646.003129 580.582149 
L 647.495337 545.610373 
L 648.987545 577.862134 
L 650.478211 550.906286 
L 651.970419 576.509359 
L 653.462627 578.930424 
L 654.954835 567.480323 
L 656.447043 576.876349 
L 657.93925 576.512573 
L 659.431458 563.15948 
L 660.922125 578.656655 
L 662.414333 573.028575 
L 663.90654 555.763953 
L 665.398748 574.149369 
L 666.890956 575.204266 
L 669.875372 572.224947 
L 671.366038 576.84849 
L 672.858246 584.386634 
L 674.350454 546.75849 
L 675.842662 579.650476 
L 677.33487 551.389534 
L 678.827078 574.184729 
L 680.317744 586.332434 
L 681.809952 548.016437 
L 683.30216 559.932107 
L 684.794368 559.192769 
L 686.286576 581.883545 
L 687.778783 577.216552 
L 689.270991 570.905388 
L 690.761658 579.449033 
L 692.253866 578.158405 
L 693.746073 570.876994 
L 695.238281 554.630301 
L 696.730489 583.242213 
L 698.222697 558.658088 
L 701.205571 591.583558 
L 704.189987 555.469289 
L 705.682195 569.264914 
L 707.174403 559.309027 
L 708.666611 573.268057 
L 710.157277 566.293096 
L 711.649485 560.880389 
L 713.141693 565.102118 
L 714.633901 581.166655 
L 716.126109 586.404492 
L 717.618316 572.161728 
L 719.110524 568.274844 
L 720.601191 576.321846 
L 722.093399 572.188516 
L 723.585606 552.454074 
L 725.077814 581.946818 
L 726.570022 559.182054 
L 728.06223 570.101224 
L 729.554438 567.683909 
L 731.045104 562.823027 
L 732.537312 567.751414 
L 734.02952 592.673867 
L 735.521728 563.340028 
L 737.013936 577.270663 
L 738.506144 575.679478 
L 739.998352 558.265381 
L 741.489018 574.978714 
L 742.981226 584.233302 
L 744.473434 565.184088 
L 745.965642 580.723052 
L 747.457849 573.532183 
L 748.950057 579.120081 
L 750.442265 583.688495 
L 751.932932 574.664763 
L 753.425139 566.558829 
L 754.917347 566.503646 
L 756.409555 584.908082 
L 757.901763 548.336281 
L 759.393971 574.495466 
L 760.884637 583.995803 
L 762.376845 571.034505 
L 763.869053 588.685298 
L 765.361261 569.399924 
L 766.853469 582.843506 
L 768.345677 576.137011 
L 769.837885 583.519948 
L 771.328551 592.709709 
L 772.820759 581.375598 
L 774.312967 583.246607 
L 775.805175 587.948263 
L 777.297382 568.527183 
L 778.78959 567.665693 
L 780.281798 570.557685 
L 781.772465 556.748666 
L 783.264672 576.108616 
L 784.75688 585.599471 
L 786.249088 568.842206 
L 787.741296 574.221696 
L 789.233504 577.672478 
L 790.72417 577.526753 
L 792.216378 594.067574 
L 793.708586 580.221588 
L 795.200794 585.381794 
L 796.693002 572.432283 
L 798.18521 587.128776 
L 799.677418 589.635187 
L 801.168084 572.120475 
L 802.660292 596.704922 
L 804.1525 568.57808 
L 805.644708 579.082042 
L 807.136916 600.614629 
L 808.629123 577.700872 
L 810.121331 602.769908 
L 811.611998 599.479798 
L 813.104205 579.347775 
L 814.596413 592.91892 
L 816.088621 587.153153 
L 817.580829 571.036648 
L 819.073037 603.027605 
L 820.565245 599.655632 
L 822.055911 599.405757 
L 823.548119 589.789805 
L 825.040327 577.150119 
L 826.532535 576.775092 
L 828.024743 594.22321 
L 831.009159 575.793058 
L 832.499825 574.648155 
L 833.992033 567.427284 
L 835.484241 603.201349 
L 836.976449 582.205747 
L 838.468656 582.992339 
L 839.960864 594.176278 
L 841.451531 580.432674 
L 842.943739 578.615938 
L 844.435946 579.978892 
L 845.928154 575.01836 
L 847.420362 590.713281 
L 848.91257 578.750411 
L 850.404778 578.305201 
L 851.895444 584.951049 
L 853.387652 581.195586 
L 854.87986 570.643406 
L 856.372068 585.063129 
L 857.864276 583.678852 
L 859.356484 575.625367 
L 860.848692 595.998533 
L 862.339358 566.983681 
L 863.831566 591.19953 
L 865.323774 597.017159 
L 866.815982 586.475158 
L 868.308189 587.154867 
L 869.800397 566.416855 
L 871.291064 589.644402 
L 872.783272 574.43814 
L 874.275479 582.06629 
L 875.767687 575.367671 
L 877.259895 592.079504 
L 878.752103 584.147796 
L 880.244311 584.576612 
L 881.734977 580.026038 
L 883.227185 569.652264 
L 884.719393 578.029289 
L 886.211601 582.882027 
L 887.703809 606.170971 
L 889.196017 591.656741 
L 890.688225 609.078393 
L 892.178891 579.079363 
L 893.671099 590.574468 
L 895.163307 586.156921 
L 896.655515 573.674693 
L 898.147722 587.438494 
L 899.63993 587.108417 
L 901.132138 597.165294 
L 902.622805 580.629831 
L 904.115012 575.153905 
L 905.60722 578.046433 
L 907.099428 573.190908 
L 908.591636 590.418135 
L 910.083844 597.104594 
L 911.576052 602.900096 
L 913.066718 579.868527 
L 914.558926 615.6 
L 916.051134 605.513817 
L 917.543342 592.029357 
L 919.03555 592.546894 
L 920.527758 576.380243 
L 922.018424 591.217746 
L 923.510632 570.844848 
L 925.00284 591.043465 
L 926.495048 589.931993 
L 927.987255 589.846059 
L 929.479463 582.224552 
L 930.971671 589.457102 
L 932.462338 571.423997 
L 933.954545 576.427925 
L 933.954545 576.427925 
" clip-path="url(#pa2dfdf422f)" style="fill: none; stroke: #ff7f0e; stroke-width: 1.5; stroke-linecap: square"/>
   </g>
   <g id="line2d_27">
    <path d="M 173.045455 141.963234 
L 174.537428 111.970205 
L 176.02942 123.89659 
L 177.521397 136.910553 
L 179.013373 156.852866 
L 180.50535 145.553847 
L 181.997327 123.215113 
L 183.489303 135.04667 
L 184.981296 136.596066 
L 186.473272 141.265684 
L 187.965295 134.459485 
L 189.457195 145.890835 
L 190.949248 134.007846 
L 192.441148 149.195356 
L 193.933202 145.239896 
L 195.425101 154.871117 
L 196.917155 147.948124 
L 198.409055 142.050561 
L 199.901108 157.393976 
L 201.393008 174.826824 
L 202.885062 161.955372 
L 204.376961 164.121955 
L 205.869015 168.549413 
L 207.360914 162.121455 
L 208.852968 181.787856 
L 210.344868 179.797 
L 211.836921 166.514089 
L 213.328975 182.079305 
L 214.820875 188.037944 
L 216.312928 187.56541 
L 217.804828 216.80785 
L 219.296882 174.149633 
L 220.788781 201.649806 
L 222.280835 194.698954 
L 223.772735 206.330139 
L 225.264788 222.974896 
L 226.756688 194.214633 
L 228.248742 182.697563 
L 229.740641 212.9065 
L 231.232695 210.935467 
L 232.724595 213.698342 
L 234.216648 225.264702 
L 235.708548 235.480429 
L 237.200602 210.334353 
L 238.692501 240.559363 
L 240.184555 236.645691 
L 241.676454 253.065432 
L 243.168508 225.101833 
L 244.660408 230.720269 
L 246.152462 242.88935 
L 247.644361 239.623403 
L 249.136415 238.818703 
L 250.628314 235.613296 
L 252.120368 262.499496 
L 253.612422 257.363238 
L 255.104321 263.919776 
L 256.596375 262.924348 
L 258.088275 279.471598 
L 259.580328 266.563179 
L 261.072228 302.755935 
L 262.564282 292.130357 
L 264.056181 279.957525 
L 265.548235 299.395695 
L 267.040135 259.385703 
L 268.532188 278.605286 
L 270.024088 271.912667 
L 271.516142 289.061031 
L 273.008041 298.027384 
L 274.500095 289.760188 
L 275.991995 280.129502 
L 277.484048 307.725039 
L 278.975948 306.36637 
L 280.468002 315.896871 
L 281.959901 334.680887 
L 283.451955 332.626276 
L 284.943854 318.325436 
L 286.435908 322.415371 
L 287.927808 323.182032 
L 289.419861 305.110031 
L 290.911761 330.571666 
L 292.403815 303.942091 
L 293.895714 349.354611 
L 295.387768 345.345575 
L 296.879822 332.534127 
L 298.371721 335.505946 
L 299.863775 345.027338 
L 301.355675 367.789852 
L 302.847728 336.511017 
L 304.339628 368.349713 
L 305.831682 342.247319 
L 307.323581 348.374184 
L 308.815635 357.173917 
L 310.307535 358.636522 
L 311.799588 382.068726 
L 313.291488 361.096697 
L 314.783542 360.140379 
L 316.275441 382.038188 
L 317.767495 361.034014 
L 319.259394 368.228633 
L 320.751448 366.335284 
L 322.243348 384.5139 
L 323.735402 357.235529 
L 325.227301 356.365467 
L 326.719971 377.098551 
L 328.210638 370.773993 
L 329.702846 393.099869 
L 331.195054 370.573622 
L 332.687261 386.801027 
L 334.179469 408.912066 
L 335.671677 385.602013 
L 337.163885 394.051901 
L 338.654551 378.663483 
L 340.146759 406.372064 
L 341.638967 426.828699 
L 343.131175 381.629945 
L 344.623383 382.163018 
L 346.115591 404.083865 
L 347.607799 382.983791 
L 349.098465 412.534288 
L 350.590673 407.938604 
L 352.082881 413.948675 
L 353.575089 435.324662 
L 355.067297 402.343206 
L 356.559504 410.838096 
L 358.050171 416.104007 
L 359.542379 406.076329 
L 361.034587 431.41849 
L 362.526794 439.8807 
L 364.019002 432.017462 
L 365.51121 449.814622 
L 367.003418 427.764123 
L 368.494084 459.533707 
L 369.986292 422.761803 
L 371.4785 418.942423 
L 372.970708 440.442705 
L 375.955124 489.493519 
L 377.447332 433.201475 
L 378.937998 451.78887 
L 380.430206 454.351374 
L 381.922414 425.282518 
L 383.414622 415.777734 
L 384.90683 431.153829 
L 386.399037 431.741013 
L 387.891245 454.404413 
L 389.381912 451.724579 
L 390.87412 458.480953 
L 392.366327 469.868372 
L 393.858535 495.367509 
L 395.350743 453.601856 
L 396.842951 471.877979 
L 398.333617 487.040309 
L 399.825825 470.233219 
L 401.318033 474.465663 
L 402.810241 441.904773 
L 404.302449 488.229143 
L 407.286865 460.380196 
L 408.777531 476.822438 
L 410.269739 476.479021 
L 411.761947 488.108599 
L 413.254155 454.309585 
L 414.746363 467.683573 
L 416.23857 472.32694 
L 417.730778 483.252003 
L 419.221445 467.472487 
L 420.713653 470.511275 
L 422.20586 491.384725 
L 423.698068 473.215753 
L 425.190276 486.625636 
L 426.682484 489.346187 
L 428.174692 467.429626 
L 429.665358 475.921303 
L 431.157566 516.358825 
L 432.649774 471.950306 
L 434.141982 486.876904 
L 435.63419 478.46827 
L 437.126398 494.496375 
L 438.617064 485.138923 
L 440.109272 510.052483 
L 441.60148 499.338506 
L 443.093688 489.457624 
L 444.585896 502.509089 
L 446.078104 516.675455 
L 447.570311 513.425581 
L 449.060978 503.638455 
L 450.553186 534.23742 
L 452.045394 482.232466 
L 453.537601 513.223602 
L 455.029809 495.708783 
L 456.522017 503.77025 
L 458.014225 519.064911 
L 459.504891 507.874114 
L 460.997099 509.354934 
L 462.489307 514.550125 
L 463.981515 491.033272 
L 465.473723 537.660342 
L 466.965931 497.429084 
L 468.458139 505.702709 
L 469.948805 513.125559 
L 471.441013 525.699669 
L 472.933221 489.332793 
L 474.425429 513.750782 
L 475.917637 505.488408 
L 477.409844 515.837538 
L 478.900511 513.106272 
L 480.392719 528.976331 
L 481.884927 505.906831 
L 483.377134 542.289779 
L 484.869342 556.827957 
L 486.36155 509.71871 
L 487.853758 521.020407 
L 489.344424 535.057121 
L 490.836632 527.514798 
L 492.32884 550.298207 
L 493.821048 517.652667 
L 495.313256 514.103308 
L 496.805464 507.740712 
L 498.297672 517.530516 
L 499.788338 484.829258 
L 501.280546 524.391362 
L 502.772754 495.212141 
L 504.264962 534.83532 
L 505.75717 510.66217 
L 507.249377 536.293638 
L 508.741585 553.83953 
L 510.232252 545.546618 
L 511.72446 545.306601 
L 513.216667 533.734884 
L 514.708875 509.697279 
L 516.201083 541.091301 
L 517.693291 517.286749 
L 519.183957 540.916646 
L 520.676165 538.91186 
L 522.168373 552.987684 
L 523.660581 545.494114 
L 525.152789 521.86261 
L 526.644997 551.216486 
L 528.137205 565.998432 
L 529.627871 540.580193 
L 531.120079 525.683597 
L 532.612287 550.818958 
L 534.104495 546.503472 
L 535.596703 545.96772 
L 537.08891 541.585265 
L 538.581118 516.26989 
L 540.071785 553.309671 
L 541.563993 544.851212 
L 543.0562 556.921178 
L 544.548408 555.693234 
L 546.040616 564.149014 
L 547.532824 539.168485 
L 549.025032 542.567835 
L 550.515698 517.984298 
L 552.007906 529.577981 
L 553.500114 565.262844 
L 554.992322 553.680412 
L 556.48453 573.309845 
L 557.976738 577.02636 
L 559.467404 563.108583 
L 560.959612 552.911607 
L 562.45182 529.279031 
L 563.944028 534.501546 
L 565.436236 556.725629 
L 566.928443 537.60516 
L 568.420651 550.192663 
L 569.911318 576.984036 
L 572.895733 531.011119 
L 575.880149 588.708924 
L 577.372357 575.09283 
L 578.864565 558.850423 
L 580.355231 551.868497 
L 581.847439 546.260776 
L 583.339647 556.467396 
L 584.831855 560.456609 
L 586.324063 586.665404 
L 587.816271 586.603096 
L 589.308479 560.240165 
L 590.799145 553.656303 
L 592.291353 529.891396 
L 593.783561 570.794488 
L 595.275769 556.248273 
L 596.767976 572.443534 
L 598.260184 560.00872 
L 599.750851 566.702946 
L 601.243059 560.433571 
L 602.735266 551.485434 
L 604.227474 558.136265 
L 605.719682 588.614471 
L 607.21189 581.05254 
L 608.704098 578.148761 
L 610.194764 581.810201 
L 611.686972 578.923995 
L 613.17918 567.945356 
L 614.671388 564.639228 
L 616.163596 565.306775 
L 617.655804 576.30738 
L 619.148012 568.740949 
L 622.130886 566.409354 
L 623.623094 553.569511 
L 625.115302 564.131335 
L 626.60751 571.04897 
L 628.099717 580.913244 
L 629.591925 567.382816 
L 631.082592 550.431609 
L 632.574799 567.575687 
L 634.067007 565.378031 
L 635.559215 571.795809 
L 637.051423 550.814672 
L 640.034297 601.284534 
L 641.526505 552.889105 
L 643.018713 568.515397 
L 644.510921 561.675981 
L 646.003129 580.574648 
L 647.495337 545.610909 
L 648.987545 577.856776 
L 650.478211 550.903607 
L 651.970419 576.495429 
L 653.462627 578.927745 
L 654.954835 567.476573 
L 656.447043 576.872599 
L 657.93925 576.499715 
L 659.431458 563.165909 
L 660.922125 578.645404 
L 662.414333 573.040898 
L 663.90654 555.748416 
L 665.398748 574.13919 
L 666.890956 575.21391 
L 669.875372 572.180479 
L 671.366038 576.839382 
L 672.858246 584.410475 
L 674.350454 546.787421 
L 675.842662 579.59315 
L 677.33487 551.377748 
L 678.827078 574.144548 
L 680.317744 586.333987 
L 681.809952 548.031438 
L 683.30216 559.958359 
L 684.794368 559.178839 
L 686.286576 581.860937 
L 687.778783 577.270663 
L 689.270991 570.949856 
L 690.761658 579.405101 
L 692.253866 578.205551 
L 693.746073 570.917175 
L 695.238281 554.564403 
L 696.730489 583.27168 
L 698.222697 558.722378 
L 701.205571 591.6329 
L 704.189987 555.509471 
L 705.682195 569.222054 
L 707.174403 559.204019 
L 708.666611 573.230554 
L 710.157277 566.301132 
L 711.649485 560.937179 
L 713.141693 565.10319 
L 714.633901 581.145761 
L 716.126109 586.306878 
L 717.618316 572.151013 
L 719.110524 568.128584 
L 720.601191 576.253805 
L 722.093399 572.142441 
L 723.585606 552.484077 
L 725.077814 582.011697 
L 726.570022 559.161695 
L 728.06223 570.157478 
L 729.554438 567.684981 
L 731.045104 562.750701 
L 732.537312 567.899282 
L 734.02952 592.789751 
L 735.521728 563.512005 
L 737.013936 577.246019 
L 738.506144 575.743769 
L 739.998352 558.247166 
L 741.489018 575.030146 
L 742.981226 584.359632 
L 744.473434 565.21409 
L 745.965642 580.613223 
L 747.457849 573.510753 
L 748.950057 579.086864 
L 750.442265 583.647939 
L 751.932932 574.724768 
L 753.425139 566.546507 
L 754.917347 566.482216 
L 756.409555 584.932298 
L 757.901763 548.27842 
L 759.393971 574.370099 
L 760.884637 584.005286 
L 762.376845 570.999681 
L 763.869053 588.581254 
L 765.361261 569.340456 
L 766.853469 582.936031 
L 768.345677 576.360956 
L 769.837885 583.714051 
L 771.328551 592.518821 
L 772.820759 581.462926 
L 774.312967 583.27318 
L 775.805175 587.863775 
L 777.297382 568.454321 
L 778.78959 567.767486 
L 780.281798 570.475179 
L 781.772465 556.735272 
L 783.264672 576.017538 
L 784.75688 585.754946 
L 786.249088 568.715232 
L 787.741296 574.432247 
L 789.233504 577.758734 
L 790.72417 577.434603 
L 792.216378 594.172795 
L 793.708586 580.171227 
L 795.200794 585.293074 
L 796.693002 572.536219 
L 798.18521 587.247445 
L 799.677418 589.691119 
L 801.168084 572.102795 
L 802.660292 596.71703 
L 804.1525 568.604332 
L 805.644708 578.959355 
L 807.136916 600.702761 
L 808.629123 577.643011 
L 810.121331 602.956832 
L 811.611998 599.669883 
L 813.104205 579.344025 
L 814.596413 593.028107 
L 816.088621 587.435226 
L 817.580829 571.153442 
L 819.073037 602.899774 
L 820.565245 599.482531 
L 822.055911 599.380041 
L 823.548119 589.989748 
L 825.040327 577.351026 
L 826.532535 576.832953 
L 828.024743 594.476353 
L 831.009159 575.816095 
L 832.499825 574.771914 
L 833.992033 567.346921 
L 835.484241 603.165829 
L 836.976449 582.267251 
L 838.468656 583.122098 
L 839.960864 594.292643 
L 841.451531 580.527502 
L 842.943739 578.720409 
L 844.435946 580.051218 
L 845.928154 574.782093 
L 847.420362 590.461585 
L 848.91257 578.859705 
L 850.404778 578.388779 
L 851.895444 585.135455 
L 853.387652 581.309701 
L 854.87986 570.673408 
L 856.372068 585.235802 
L 857.864276 583.662833 
L 859.356484 575.672514 
L 860.848692 596.015355 
L 862.339358 567.092438 
L 863.831566 591.244158 
L 865.323774 597.056912 
L 866.815982 586.369508 
L 868.308189 587.021786 
L 869.800397 566.554007 
L 871.291064 589.514589 
L 872.783272 574.270985 
L 874.275479 582.236124 
L 875.767687 575.158727 
L 877.259895 592.190886 
L 878.752103 584.06604 
L 880.244311 584.462711 
L 881.734977 580.035146 
L 883.227185 569.78138 
L 884.719393 578.084471 
L 886.211601 582.856847 
L 887.703809 606.160578 
L 889.196017 591.764749 
L 890.688225 609.144933 
L 892.178891 579.244375 
L 893.671099 590.661956 
L 895.163307 586.13833 
L 896.655515 573.643083 
L 898.147722 587.38208 
L 899.63993 587.099042 
L 901.132138 597.225299 
L 902.622805 580.716087 
L 904.115012 575.181229 
L 905.60722 578.006251 
L 907.099428 573.193051 
L 908.591636 590.50032 
L 910.083844 597.136792 
L 911.576052 602.887559 
L 913.066718 579.907101 
L 914.558926 615.57707 
L 916.051134 605.537444 
L 917.543342 592.045483 
L 919.03555 592.606095 
L 920.527758 576.389886 
L 922.018424 591.202423 
L 923.510632 570.846456 
L 925.00284 591.049252 
L 926.495048 589.96896 
L 927.987255 589.856613 
L 929.479463 582.243517 
L 930.971671 589.463907 
L 932.462338 571.415961 
L 933.954545 576.412924 
L 933.954545 576.412924 
" clip-path="url(#pa2dfdf422f)" style="fill: none; stroke: #2ca02c; stroke-width: 1.5; stroke-linecap: square"/>
   </g>
   <g id="line2d_28">
    <path d="M 173.045455 123.836586 
L 174.537428 111.6 
L 176.02942 118.678897 
L 177.521397 124.589318 
L 179.013373 134.955056 
L 180.50535 136.348012 
L 181.997327 120.162931 
L 183.489303 132.7574 
L 184.981296 141.459091 
L 186.473272 155.857438 
L 187.965295 150.068097 
L 189.457195 185.500084 
L 190.949248 158.970695 
L 192.441148 184.957903 
L 193.933202 189.340358 
L 195.425101 221.433 
L 196.917155 224.324456 
L 198.409055 186.238351 
L 199.901108 197.672915 
L 201.393008 226.676945 
L 202.885062 200.92654 
L 204.376961 222.711842 
L 205.869015 231.49336 
L 207.360914 212.433967 
L 208.852968 230.303454 
L 210.344868 213.933002 
L 211.836921 205.820639 
L 213.328975 203.381358 
L 214.820875 210.732417 
L 216.312928 201.778386 
L 217.804828 242.010716 
L 219.296882 190.512048 
L 222.280835 211.823745 
L 223.772735 204.517689 
L 225.264788 218.354031 
L 226.756688 193.672988 
L 228.248742 179.475548 
L 229.740641 208.957469 
L 231.232695 197.827212 
L 234.216648 210.327388 
L 235.708548 214.973969 
L 237.200602 204.324818 
L 238.692501 219.623764 
L 240.184555 232.067686 
L 241.676454 224.403212 
L 243.168508 215.507578 
L 244.660408 219.820921 
L 246.152462 218.85871 
L 247.644361 221.054759 
L 249.136415 227.603261 
L 250.628314 218.584405 
L 252.120368 235.62669 
L 253.612422 244.563041 
L 255.104321 244.735017 
L 256.596375 244.638582 
L 258.088275 254.346416 
L 259.580328 246.669083 
L 261.072228 282.108572 
L 262.564282 259.596254 
L 264.056181 265.265051 
L 265.548235 269.26605 
L 267.040135 255.850273 
L 268.532188 254.471246 
L 270.024088 263.29241 
L 271.516142 277.11268 
L 273.008041 279.335517 
L 274.500095 274.622503 
L 275.991995 267.433241 
L 277.484048 296.861586 
L 278.975948 291.055637 
L 280.468002 310.257005 
L 281.959901 312.527524 
L 283.451955 311.35369 
L 284.943854 297.194824 
L 286.435908 308.80833 
L 287.927808 313.394371 
L 289.419861 309.218716 
L 290.911761 321.158495 
L 292.403815 305.959199 
L 293.895714 354.564267 
L 295.387768 338.510981 
L 296.879822 333.389724 
L 298.371721 337.624311 
L 299.863775 350.039302 
L 301.355675 370.245205 
L 302.847728 342.258569 
L 304.339628 372.577336 
L 305.831682 339.316753 
L 307.323581 369.748027 
L 308.815635 357.013192 
L 310.307535 362.306961 
L 311.799588 398.418283 
L 313.291488 373.777421 
L 314.783542 360.068052 
L 316.275441 387.819493 
L 317.767495 366.258136 
L 319.259394 388.263631 
L 320.751448 389.876246 
L 322.243348 392.261416 
L 323.735402 403.077722 
L 325.227301 393.262737 
L 326.719971 418.783305 
L 328.210638 405.565221 
L 329.702846 409.926246 
L 331.195054 409.481035 
L 332.687261 427.592682 
L 334.179469 443.662041 
L 335.671677 422.452138 
L 337.163885 409.854455 
L 338.654551 411.173477 
L 340.146759 443.575785 
L 341.638967 453.589534 
L 343.131175 442.139433 
L 344.623383 414.306558 
L 346.115591 445.696829 
L 347.607799 436.243477 
L 349.098465 450.846481 
L 350.590673 468.917947 
L 352.082881 460.894518 
L 353.575089 477.530167 
L 355.067297 438.200045 
L 356.559504 433.682045 
L 358.050171 446.63386 
L 359.542379 444.080464 
L 361.034587 479.918552 
L 362.526794 475.408588 
L 364.019002 467.92359 
L 365.51121 488.471839 
L 367.003418 465.690574 
L 368.494084 500.909332 
L 371.4785 463.356301 
L 372.970708 496.766359 
L 374.462916 503.528626 
L 375.955124 470.356442 
L 377.447332 479.699429 
L 378.937998 495.972909 
L 380.430206 479.412266 
L 381.922414 451.890127 
L 383.414622 494.98391 
L 384.90683 489.294219 
L 386.399037 487.693391 
L 387.891245 477.908408 
L 389.381912 493.936514 
L 390.87412 459.29369 
L 392.366327 512.10763 
L 393.858535 505.566628 
L 395.350743 497.522841 
L 396.842951 484.974447 
L 398.333617 518.083948 
L 399.825825 520.110164 
L 401.318033 492.519449 
L 402.810241 484.39637 
L 404.302449 516.366862 
L 405.794657 493.527199 
L 407.286865 517.316215 
L 408.777531 519.611378 
L 410.269739 518.026087 
L 411.761947 520.208742 
L 413.254155 492.662495 
L 414.746363 503.734891 
L 416.23857 518.317536 
L 417.730778 513.082699 
L 419.221445 506.575986 
L 420.713653 494.896047 
L 422.20586 531.807783 
L 423.698068 473.488987 
L 425.190276 528.964009 
L 426.682484 512.007444 
L 428.174692 503.885437 
L 429.665358 506.679386 
L 431.157566 528.614162 
L 432.649774 514.739246 
L 434.141982 518.566661 
L 435.63419 507.564449 
L 437.126398 538.670236 
L 438.617064 512.781606 
L 440.109272 551.102907 
L 443.093688 492.298719 
L 444.585896 504.607631 
L 446.078104 520.829679 
L 447.570311 512.817502 
L 449.060978 530.769494 
L 450.553186 552.438002 
L 452.045394 510.991122 
L 453.537601 514.111344 
L 455.029809 513.928652 
L 456.522017 526.213456 
L 458.014225 543.26592 
L 459.504891 507.757856 
L 460.997099 514.625666 
L 462.489307 546.062012 
L 463.981515 516.948689 
L 465.473723 578.766484 
L 466.965931 521.902792 
L 468.458139 532.465151 
L 469.948805 535.831819 
L 471.441013 544.602087 
L 472.933221 506.257749 
L 474.425429 531.587053 
L 475.917637 543.297529 
L 477.409844 525.081411 
L 478.900511 524.492619 
L 480.392719 552.245667 
L 481.884927 514.557626 
L 483.377134 549.43886 
L 484.869342 569.121869 
L 486.36155 528.442722 
L 487.853758 522.290141 
L 489.344424 561.535078 
L 490.836632 559.552794 
L 492.32884 551.464004 
L 493.821048 526.483475 
L 495.313256 533.101089 
L 496.805464 536.740455 
L 498.297672 539.792637 
L 499.788338 525.664845 
L 501.280546 536.833676 
L 502.772754 524.51512 
L 504.264962 542.326746 
L 505.75717 522.900363 
L 507.249377 559.423678 
L 508.741585 554.716021 
L 510.232252 550.614301 
L 511.72446 546.152018 
L 513.216667 560.863245 
L 514.708875 512.710887 
L 516.201083 548.185199 
L 517.693291 517.689634 
L 519.183957 563.819527 
L 520.676165 566.993324 
L 522.168373 555.8186 
L 523.660581 570.835205 
L 525.152789 539.225811 
L 526.644997 553.496649 
L 528.137205 591.415438 
L 529.627871 549.8096 
L 531.120079 539.663521 
L 532.612287 562.390675 
L 534.104495 561.543115 
L 535.596703 559.093654 
L 537.08891 554.719771 
L 538.581118 549.202593 
L 540.071785 553.514329 
L 541.563993 545.999865 
L 543.0562 561.126299 
L 544.548408 584.614543 
L 546.040616 570.10176 
L 547.532824 524.936222 
L 549.025032 569.59976 
L 550.515698 567.554793 
L 552.007906 559.152051 
L 553.500114 554.334565 
L 554.992322 562.613548 
L 556.48453 576.923496 
L 557.976738 566.355779 
L 559.467404 586.093756 
L 560.959612 562.825706 
L 562.45182 544.118302 
L 563.944028 541.702059 
L 565.436236 553.185377 
L 566.928443 568.37503 
L 568.420651 543.13091 
L 569.911318 582.837185 
L 571.403526 553.57969 
L 572.895733 558.54558 
L 574.387941 568.42164 
L 575.880149 576.11826 
L 577.372357 596.036732 
L 578.864565 570.36535 
L 580.355231 554.032401 
L 581.847439 574.463856 
L 583.339647 575.22141 
L 584.831855 564.496718 
L 586.324063 577.792486 
L 587.816271 574.603152 
L 589.308479 570.822347 
L 590.799145 563.758987 
L 592.291353 557.842137 
L 593.783561 580.977534 
L 595.275769 557.95143 
L 596.767976 579.154369 
L 598.260184 562.278703 
L 599.750851 583.401653 
L 601.243059 566.960107 
L 602.735266 566.177909 
L 604.227474 552.344781 
L 605.719682 583.492892 
L 607.21189 574.798701 
L 608.704098 581.981159 
L 610.194764 598.944903 
L 611.686972 558.482897 
L 613.17918 566.242199 
L 614.671388 570.007467 
L 616.163596 576.246305 
L 617.655804 593.783089 
L 619.148012 595.234175 
L 620.638678 570.433391 
L 622.130886 576.130582 
L 623.623094 569.04472 
L 625.115302 562.804812 
L 626.60751 568.325205 
L 628.099717 580.186764 
L 629.591925 568.227162 
L 631.082592 566.784916 
L 632.574799 592.614024 
L 634.067007 576.116652 
L 635.559215 568.845956 
L 637.051423 547.853568 
L 638.543631 580.258555 
L 640.034297 593.78834 
L 641.526505 572.608545 
L 643.018713 562.334957 
L 644.510921 559.020256 
L 646.003129 603.046731 
L 647.495337 554.647981 
L 648.987545 593.290304 
L 650.478211 556.995112 
L 651.970419 579.391171 
L 653.462627 579.365991 
L 654.954835 564.355279 
L 656.447043 580.845739 
L 657.93925 566.346671 
L 659.431458 568.363243 
L 660.922125 565.996289 
L 662.414333 569.268129 
L 663.90654 554.64048 
L 665.398748 570.445713 
L 666.890956 581.986463 
L 668.383164 558.404141 
L 669.875372 563.980252 
L 671.366038 563.295025 
L 672.858246 590.805056 
L 674.350454 571.499538 
L 675.842662 564.700839 
L 677.33487 560.118549 
L 678.827078 567.27138 
L 680.317744 571.279344 
L 681.809952 561.980289 
L 683.30216 573.709517 
L 684.794368 571.186123 
L 686.286576 563.626656 
L 687.778783 572.449427 
L 689.270991 575.281414 
L 690.761658 576.630975 
L 692.253866 569.606189 
L 693.746073 566.705625 
L 695.238281 556.945287 
L 696.730489 581.455693 
L 698.222697 573.896494 
L 699.714905 576.156834 
L 701.205571 588.253695 
L 702.697779 569.181337 
L 704.189987 558.077332 
L 705.682195 570.818061 
L 707.174403 557.530865 
L 708.666611 557.991076 
L 710.157277 567.94482 
L 711.649485 571.101474 
L 713.141693 559.404927 
L 714.633901 579.498322 
L 716.126109 578.43271 
L 717.618316 567.98393 
L 719.110524 568.921497 
L 720.601191 562.92482 
L 722.093399 569.102581 
L 723.585606 556.231665 
L 725.077814 585.535395 
L 726.570022 564.191875 
L 728.06223 584.900474 
L 729.554438 562.167802 
L 731.045104 563.541471 
L 732.537312 566.956357 
L 734.02952 586.507571 
L 735.521728 564.551365 
L 737.013936 558.388604 
L 738.506144 586.684101 
L 739.998352 568.522897 
L 741.489018 572.141369 
L 742.981226 578.10483 
L 744.473434 580.345882 
L 745.965642 558.438965 
L 747.457849 580.603579 
L 748.950057 583.730873 
L 750.442265 571.803845 
L 751.932932 572.534076 
L 753.425139 578.277878 
L 754.917347 571.769021 
L 756.409555 593.399223 
L 757.901763 573.137869 
L 759.393971 559.423142 
L 760.884637 585.633384 
L 762.376845 584.559736 
L 763.869053 599.076859 
L 765.361261 569.428855 
L 766.853469 578.562362 
L 768.345677 571.18398 
L 769.837885 578.695229 
L 771.328551 589.886133 
L 772.820759 573.845062 
L 774.312967 580.275699 
L 775.805175 596.621023 
L 777.297382 589.236158 
L 778.78959 561.522756 
L 780.281798 579.003822 
L 781.772465 563.712376 
L 783.264672 583.842042 
L 784.75688 569.444927 
L 786.249088 576.101116 
L 787.741296 579.403494 
L 789.233504 577.508002 
L 790.72417 576.600973 
L 792.216378 585.987409 
L 793.708586 568.40021 
L 795.200794 585.727783 
L 796.693002 576.955105 
L 798.18521 581.257197 
L 799.677418 572.827668 
L 801.168084 562.386389 
L 802.660292 578.898815 
L 804.1525 548.833995 
L 805.644708 567.388709 
L 807.136916 591.433118 
L 808.629123 580.637867 
L 810.121331 578.627724 
L 811.611998 581.236839 
L 813.104205 578.726303 
L 814.596413 577.362813 
L 816.088621 571.162014 
L 817.580829 558.291097 
L 819.073037 604.460635 
L 820.565245 585.517447 
L 822.055911 587.321325 
L 823.548119 574.964785 
L 825.040327 576.146655 
L 826.532535 582.517662 
L 828.024743 576.454712 
L 829.516951 572.616582 
L 831.009159 578.392529 
L 832.499825 579.671906 
L 833.992033 572.495502 
L 835.484241 586.754178 
L 836.976449 579.114187 
L 838.468656 579.2942 
L 839.960864 584.617651 
L 841.451531 569.804953 
L 842.943739 568.112511 
L 844.435946 580.6968 
L 845.928154 574.634225 
L 847.420362 589.090219 
L 848.91257 557.820707 
L 850.404778 574.923532 
L 851.895444 579.668691 
L 853.387652 582.78452 
L 854.87986 576.229696 
L 856.372068 570.751092 
L 857.864276 587.986141 
L 859.356484 565.973787 
L 860.848692 590.350791 
L 862.339358 553.907571 
L 863.831566 584.409886 
L 865.323774 580.075863 
L 866.815982 573.570757 
L 868.308189 589.506231 
L 869.800397 571.589009 
L 871.291064 585.299289 
L 872.783272 573.411638 
L 874.275479 576.206659 
L 875.767687 578.32556 
L 877.259895 577.868027 
L 878.752103 578.055541 
L 880.244311 582.85015 
L 881.734977 576.498108 
L 883.227185 563.297168 
L 884.719393 570.536255 
L 886.211601 571.090223 
L 887.703809 596.518534 
L 889.196017 585.564004 
L 890.688225 598.917687 
L 892.178891 573.567007 
L 893.671099 586.016072 
L 895.163307 577.842847 
L 896.655515 579.162941 
L 898.147722 578.946497 
L 899.63993 565.178195 
L 901.132138 585.680423 
L 902.622805 580.586435 
L 904.115012 567.264951 
L 905.60722 572.349241 
L 907.099428 563.880602 
L 908.591636 578.453605 
L 910.083844 590.167725 
L 911.576052 574.830311 
L 913.066718 565.433749 
L 914.558926 592.387508 
L 916.051134 591.709513 
L 917.543342 577.916245 
L 919.03555 569.662979 
L 920.527758 557.808384 
L 922.018424 589.812306 
L 923.510632 567.639442 
L 925.00284 583.751982 
L 926.495048 567.148692 
L 927.987255 583.377759 
L 929.479463 566.145228 
L 930.971671 588.458246 
L 932.462338 573.55897 
L 933.954545 560.900212 
L 933.954545 560.900212 
" clip-path="url(#pa2dfdf422f)" style="fill: none; stroke: #d62728; stroke-width: 1.5; stroke-linecap: square"/>
   </g>
   <g id="line2d_29">
    <path d="M 135 558.388068 
L 972 558.388068 
" clip-path="url(#pa2dfdf422f)" style="fill: none; stroke-dasharray: 5.55,2.4; stroke-dashoffset: 0; stroke: #ffa500; stroke-width: 1.5"/>
   </g>
   <g id="patch_3">
    <path d="M 135 640.8 
L 135 86.4 
" style="fill: none; stroke: #000000; stroke-width: 0.8; stroke-linejoin: miter; stroke-linecap: square"/>
   </g>
   <g id="patch_4">
    <path d="M 972 640.8 
L 972 86.4 
" style="fill: none; stroke: #000000; stroke-width: 0.8; stroke-linejoin: miter; stroke-linecap: square"/>
   </g>
   <g id="patch_5">
    <path d="M 135 640.8 
L 972 640.8 
" style="fill: none; stroke: #000000; stroke-width: 0.8; stroke-linejoin: miter; stroke-linecap: square"/>
   </g>
   <g id="patch_6">
    <path d="M 135 86.4 
L 972 86.4 
" style="fill: none; stroke: #000000; stroke-width: 0.8; stroke-linejoin: miter; stroke-linecap: square"/>
   </g>
   <g id="legend_1">
    <g id="patch_7">
     <path d="M 822.453125 153.1125 
L 965 153.1125 
Q 967 153.1125 967 151.1125 
L 967 93.4 
Q 967 91.4 965 91.4 
L 822.453125 91.4 
Q 820.453125 91.4 820.453125 93.4 
L 820.453125 151.1125 
Q 820.453125 153.1125 822.453125 153.1125 
z
" style="fill: #ffffff; opacity: 0.8; stroke: #cccccc; stroke-linejoin: miter"/>
    </g>
    <g id="line2d_30">
     <path d="M 824.453125 99.498437 
L 834.453125 99.498437 
L 844.453125 99.498437 
" style="fill: none; stroke: #1f77b4; stroke-width: 1.5; stroke-linecap: square"/>
    </g>
    <g id="text_15">
     <!-- imod -->
     <g transform="translate(852.453125 102.998437) scale(0.1 -0.1)">
      <defs>
       <path id="DejaVuSans-6d" d="M 3328 2828 
Q 3544 3216 3844 3400 
Q 4144 3584 4550 3584 
Q 5097 3584 5394 3201 
Q 5691 2819 5691 2113 
L 5691 0 
L 5113 0 
L 5113 2094 
Q 5113 2597 4934 2840 
Q 4756 3084 4391 3084 
Q 3944 3084 3684 2787 
Q 3425 2491 3425 1978 
L 3425 0 
L 2847 0 
L 2847 2094 
Q 2847 2600 2669 2842 
Q 2491 3084 2119 3084 
Q 1678 3084 1418 2786 
Q 1159 2488 1159 1978 
L 1159 0 
L 581 0 
L 581 3500 
L 1159 3500 
L 1159 2956 
Q 1356 3278 1631 3431 
Q 1906 3584 2284 3584 
Q 2666 3584 2933 3390 
Q 3200 3197 3328 2828 
z
" transform="scale(0.015625)"/>
       <path id="DejaVuSans-64" d="M 2906 2969 
L 2906 4863 
L 3481 4863 
L 3481 0 
L 2906 0 
L 2906 525 
Q 2725 213 2448 61 
Q 2172 -91 1784 -91 
Q 1150 -91 751 415 
Q 353 922 353 1747 
Q 353 2572 751 3078 
Q 1150 3584 1784 3584 
Q 2172 3584 2448 3432 
Q 2725 3281 2906 2969 
z
M 947 1747 
Q 947 1113 1208 752 
Q 1469 391 1925 391 
Q 2381 391 2643 752 
Q 2906 1113 2906 1747 
Q 2906 2381 2643 2742 
Q 2381 3103 1925 3103 
Q 1469 3103 1208 2742 
Q 947 2381 947 1747 
z
" transform="scale(0.015625)"/>
      </defs>
      <use xlink:href="#DejaVuSans-69"/>
      <use xlink:href="#DejaVuSans-6d" transform="translate(27.783203 0)"/>
      <use xlink:href="#DejaVuSans-6f" transform="translate(125.195312 0)"/>
      <use xlink:href="#DejaVuSans-64" transform="translate(186.376953 0)"/>
     </g>
    </g>
    <g id="line2d_31">
     <path d="M 824.453125 114.176562 
L 834.453125 114.176562 
L 844.453125 114.176562 
" style="fill: none; stroke: #ff7f0e; stroke-width: 1.5; stroke-linecap: square"/>
    </g>
    <g id="text_16">
     <!-- Ours(slice-based)) -->
     <g transform="translate(852.453125 117.676562) scale(0.1 -0.1)">
      <defs>
       <path id="DejaVuSans-4f" d="M 2522 4238 
Q 1834 4238 1429 3725 
Q 1025 3213 1025 2328 
Q 1025 1447 1429 934 
Q 1834 422 2522 422 
Q 3209 422 3611 934 
Q 4013 1447 4013 2328 
Q 4013 3213 3611 3725 
Q 3209 4238 2522 4238 
z
M 2522 4750 
Q 3503 4750 4090 4092 
Q 4678 3434 4678 2328 
Q 4678 1225 4090 567 
Q 3503 -91 2522 -91 
Q 1538 -91 948 565 
Q 359 1222 359 2328 
Q 359 3434 948 4092 
Q 1538 4750 2522 4750 
z
" transform="scale(0.015625)"/>
       <path id="DejaVuSans-28" d="M 1984 4856 
Q 1566 4138 1362 3434 
Q 1159 2731 1159 2009 
Q 1159 1288 1364 580 
Q 1569 -128 1984 -844 
L 1484 -844 
Q 1016 -109 783 600 
Q 550 1309 550 2009 
Q 550 2706 781 3412 
Q 1013 4119 1484 4856 
L 1984 4856 
z
" transform="scale(0.015625)"/>
       <path id="DejaVuSans-2d" d="M 313 2009 
L 1997 2009 
L 1997 1497 
L 313 1497 
L 313 2009 
z
" transform="scale(0.015625)"/>
       <path id="DejaVuSans-62" d="M 3116 1747 
Q 3116 2381 2855 2742 
Q 2594 3103 2138 3103 
Q 1681 3103 1420 2742 
Q 1159 2381 1159 1747 
Q 1159 1113 1420 752 
Q 1681 391 2138 391 
Q 2594 391 2855 752 
Q 3116 1113 3116 1747 
z
M 1159 2969 
Q 1341 3281 1617 3432 
Q 1894 3584 2278 3584 
Q 2916 3584 3314 3078 
Q 3713 2572 3713 1747 
Q 3713 922 3314 415 
Q 2916 -91 2278 -91 
Q 1894 -91 1617 61 
Q 1341 213 1159 525 
L 1159 0 
L 581 0 
L 581 4863 
L 1159 4863 
L 1159 2969 
z
" transform="scale(0.015625)"/>
       <path id="DejaVuSans-29" d="M 513 4856 
L 1013 4856 
Q 1481 4119 1714 3412 
Q 1947 2706 1947 2009 
Q 1947 1309 1714 600 
Q 1481 -109 1013 -844 
L 513 -844 
Q 928 -128 1133 580 
Q 1338 1288 1338 2009 
Q 1338 2731 1133 3434 
Q 928 4138 513 4856 
z
" transform="scale(0.015625)"/>
      </defs>
      <use xlink:href="#DejaVuSans-4f"/>
      <use xlink:href="#DejaVuSans-75" transform="translate(78.710938 0)"/>
      <use xlink:href="#DejaVuSans-72" transform="translate(142.089844 0)"/>
      <use xlink:href="#DejaVuSans-73" transform="translate(183.203125 0)"/>
      <use xlink:href="#DejaVuSans-28" transform="translate(235.302734 0)"/>
      <use xlink:href="#DejaVuSans-73" transform="translate(274.316406 0)"/>
      <use xlink:href="#DejaVuSans-6c" transform="translate(326.416016 0)"/>
      <use xlink:href="#DejaVuSans-69" transform="translate(354.199219 0)"/>
      <use xlink:href="#DejaVuSans-63" transform="translate(381.982422 0)"/>
      <use xlink:href="#DejaVuSans-65" transform="translate(436.962891 0)"/>
      <use xlink:href="#DejaVuSans-2d" transform="translate(498.486328 0)"/>
      <use xlink:href="#DejaVuSans-62" transform="translate(534.570312 0)"/>
      <use xlink:href="#DejaVuSans-61" transform="translate(598.046875 0)"/>
      <use xlink:href="#DejaVuSans-73" transform="translate(659.326172 0)"/>
      <use xlink:href="#DejaVuSans-65" transform="translate(711.425781 0)"/>
      <use xlink:href="#DejaVuSans-64" transform="translate(772.949219 0)"/>
      <use xlink:href="#DejaVuSans-29" transform="translate(836.425781 0)"/>
      <use xlink:href="#DejaVuSans-29" transform="translate(875.439453 0)"/>
     </g>
    </g>
    <g id="line2d_32">
     <path d="M 824.453125 128.854687 
L 834.453125 128.854687 
L 844.453125 128.854687 
" style="fill: none; stroke: #2ca02c; stroke-width: 1.5; stroke-linecap: square"/>
    </g>
    <g id="text_17">
     <!-- Ours(unified memory) -->
     <g transform="translate(852.453125 132.354687) scale(0.1 -0.1)">
      <use xlink:href="#DejaVuSans-4f"/>
      <use xlink:href="#DejaVuSans-75" transform="translate(78.710938 0)"/>
      <use xlink:href="#DejaVuSans-72" transform="translate(142.089844 0)"/>
      <use xlink:href="#DejaVuSans-73" transform="translate(183.203125 0)"/>
      <use xlink:href="#DejaVuSans-28" transform="translate(235.302734 0)"/>
      <use xlink:href="#DejaVuSans-75" transform="translate(274.316406 0)"/>
      <use xlink:href="#DejaVuSans-6e" transform="translate(337.695312 0)"/>
      <use xlink:href="#DejaVuSans-69" transform="translate(401.074219 0)"/>
      <use xlink:href="#DejaVuSans-66" transform="translate(428.857422 0)"/>
      <use xlink:href="#DejaVuSans-69" transform="translate(464.0625 0)"/>
      <use xlink:href="#DejaVuSans-65" transform="translate(491.845703 0)"/>
      <use xlink:href="#DejaVuSans-64" transform="translate(553.369141 0)"/>
      <use xlink:href="#DejaVuSans-20" transform="translate(616.845703 0)"/>
      <use xlink:href="#DejaVuSans-6d" transform="translate(648.632812 0)"/>
      <use xlink:href="#DejaVuSans-65" transform="translate(746.044922 0)"/>
      <use xlink:href="#DejaVuSans-6d" transform="translate(807.568359 0)"/>
      <use xlink:href="#DejaVuSans-6f" transform="translate(904.980469 0)"/>
      <use xlink:href="#DejaVuSans-72" transform="translate(966.162109 0)"/>
      <use xlink:href="#DejaVuSans-79" transform="translate(1007.275391 0)"/>
      <use xlink:href="#DejaVuSans-29" transform="translate(1066.455078 0)"/>
     </g>
    </g>
    <g id="line2d_33">
     <path d="M 824.453125 143.532812 
L 834.453125 143.532812 
L 844.453125 143.532812 
" style="fill: none; stroke: #d62728; stroke-width: 1.5; stroke-linecap: square"/>
    </g>
    <g id="text_18">
     <!-- tomo3d -->
     <g transform="translate(852.453125 147.032812) scale(0.1 -0.1)">
      <use xlink:href="#DejaVuSans-74"/>
      <use xlink:href="#DejaVuSans-6f" transform="translate(39.208984 0)"/>
      <use xlink:href="#DejaVuSans-6d" transform="translate(100.390625 0)"/>
      <use xlink:href="#DejaVuSans-6f" transform="translate(197.802734 0)"/>
      <use xlink:href="#DejaVuSans-33" transform="translate(258.984375 0)"/>
      <use xlink:href="#DejaVuSans-64" transform="translate(322.607422 0)"/>
     </g>
    </g>
   </g>
  </g>
 </g>
 <defs>
  <clipPath id="pa2dfdf422f">
   <rect x="135" y="86.4" width="837" height="554.4"/>
  </clipPath>
 </defs>
</svg>
